/* XPM */
static char * close_prelight_xpm[] = {
"20 24 58 1",
" 	c None",
".	c #4D4D4D",
"+	c #5C5C5C",
"@	c #555555",
"#	c #4F4F4F",
"$	c #474747",
"%	c #3E3E3E",
"&	c #383838",
"*	c #393939",
"=	c #444444",
"-	c #3B3B3B",
";	c #3C3C3C",
">	c #494949",
",	c #393F42",
"'	c #277AB3",
")	c #56A1D5",
"!	c #4F9BD1",
"~	c #256C9F",
"{	c #3A3F42",
"]	c #414141",
"^	c #116FB0",
"/	c #3DAFFF",
"(	c #83CCFF",
"_	c #77C7FF",
":	c #30A8FC",
"<	c #1F6290",
"[	c #434343",
"}	c #168FE5",
"|	c #3FB0FF",
"1	c #49B4FF",
"2	c #37ADFF",
"3	c #147AC0",
"4	c #424242",
"5	c #2395E3",
"6	c #65C0FF",
"7	c #4BB5FF",
"8	c #51B7FF",
"9	c #147EC7",
"0	c #464646",
"a	c #1E5D89",
"b	c #5FBDFF",
"c	c #7CC9FE",
"d	c #71C4FF",
"e	c #4CAEF3",
"f	c #205276",
"g	c #40484E",
"h	c #205B85",
"i	c #377EB0",
"j	c #337CAF",
"k	c #275779",
"l	c #42494D",
"m	c #4B4B4B",
"n	c #4C4C4C",
"o	c #535353",
"p	c #5B5B5B",
"q	c #5A5A5A",
"r	c #515151",
"s	c #4E4E4E",
"....................",
"++++++++++++++++++++",
"@@@@@@@@@@@@@@@@@@@@",
"####################",
"####################",
"####################",
"####################",
"####################",
"#######$%&*%$#######",
"######=-;;;;-=######",
"#####>%,')!~{%>#####",
"#####=]^/(_:<]=#####",
".....[]}|1123[[.....",
">>>>>=4567889==>>>>>",
">>>>>$0abcdef0$>>>>>",
">>>>>>>ghijkl>>>>>>>",
">>>>>>mnopqrnm>>>>>>",
">>>>>>>ms#ssm>>>>>>>",
">>>>>>>>>>>>>>>>>>>>",
">>>>>>>>>>>>>>>>>>>>",
">>>>>>>>>>>>>>>>>>>>",
">>>>>>>>>>>>>>>>>>>>",
">>>>>>>>>>>>>>>>>>>>",
">>>>>>>>>>>>>>>>>>>>"};
