/* XPM */
static char * close_pressed_xpm[] = {
"20 24 58 1",
" 	c None",
".	c #4D4D4D",
"+	c #5C5C5C",
"@	c #555555",
"#	c #4F4F4F",
"$	c #474747",
"%	c #3E3E3E",
"&	c #383838",
"*	c #393939",
"=	c #444444",
"-	c #3B3B3B",
";	c #3C3C3C",
">	c #494949",
",	c #3A3E42",
"'	c #27528C",
")	c #4E7FC2",
"!	c #4578BB",
"~	c #284C7C",
"{	c #3A3F42",
"]	c #3F4040",
"^	c #234572",
"/	c #3076D5",
"(	c #79A7E4",
"_	c #6E9FE1",
":	c #296DCA",
"<	c #264166",
"[	c #414141",
"}	c #434343",
"|	c #3F4041",
"1	c #2359A4",
"2	c #3277D5",
"3	c #3D7FD8",
"4	c #2A72D3",
"5	c #244D84",
"6	c #255FB0",
"7	c #5A92DD",
"8	c #4685D9",
"9	c #255087",
"0	c #464646",
"a	c #2E486A",
"b	c #558EDC",
"c	c #71A1E2",
"d	c #6599E0",
"e	c #407CCE",
"f	c #354862",
"g	c #40484D",
"h	c #354D6F",
"i	c #2E5EA1",
"j	c #2A599B",
"k	c #384D69",
"l	c #43494E",
"m	c #4B4B4B",
"n	c #4C4C4C",
"o	c #535353",
"p	c #5B5B5B",
"q	c #5A5A5A",
"r	c #515151",
"s	c #4E4E4E",
"....................",
"++++++++++++++++++++",
"@@@@@@@@@@@@@@@@@@@@",
"####################",
"####################",
"####################",
"####################",
"####################",
"#######$%&*%$#######",
"######=-;;;;-=######",
"#####>%,')!~{%>#####",
"#####=]^/(_:<[=#####",
".....}|123345}}.....",
">>>>>=[673889==>>>>>",
">>>>>$0abcdef0$>>>>>",
">>>>>>>ghijkl>>>>>>>",
">>>>>>mnopqrnm>>>>>>",
">>>>>>>ms#ssm>>>>>>>",
">>>>>>>>>>>>>>>>>>>>",
">>>>>>>>>>>>>>>>>>>>",
">>>>>>>>>>>>>>>>>>>>",
">>>>>>>>>>>>>>>>>>>>",
">>>>>>>>>>>>>>>>>>>>",
">>>>>>>>>>>>>>>>>>>>"};
