/* XPM */
static char * close_inactive_xpm[] = {
"20 24 27 1",
" 	c None",
".	c #4D4D4D",
"+	c #5C5C5C",
"@	c #555555",
"#	c #4F4F4F",
"$	c #474747",
"%	c #3E3E3E",
"&	c #393939",
"*	c #444444",
"=	c #3B3B3B",
"-	c #3D3D3D",
";	c #3C3C3C",
">	c #494949",
",	c #3F3F3F",
"'	c #464646",
")	c #404040",
"!	c #454545",
"~	c #414141",
"{	c #535353",
"]	c #424242",
"^	c #434343",
"/	c #4C4C4C",
"(	c #484848",
"_	c #515151",
":	c #4B4B4B",
"<	c #5B5B5B",
"[	c #4E4E4E",
"....................",
"++++++++++++++++++++",
"@@@@@@@@@@@@@@@@@@@@",
"####################",
"####################",
"####################",
"####################",
"####################",
"#######$%&&%$#######",
"######*=----;*######",
"#####>,,%>',)%>#####",
"#####!~&!{#);~!#####",
".....*]-!''^&**.....",
">>>>>!]%/'((=*!>>>>>",
">>>>>$'=/_.$;'(>>>>>",
">>>>>>>(,~]]>>>>>>>>",
">>>>>>:/{<<_/:>>>>>>",
">>>>>>>/[##[/>>>>>>>",
">>>>>>>>>>>>>>>>>>>>",
">>>>>>>>>>>>>>>>>>>>",
">>>>>>>>>>>>>>>>>>>>",
">>>>>>>>>>>>>>>>>>>>",
">>>>>>>>>>>>>>>>>>>>",
">>>>>>>>>>>>>>>>>>>>"};
