/* XPM */
static char * close_active_xpm[] = {
"20 24 60 1",
" 	c None",
".	c #4D4D4D",
"+	c #5C5C5C",
"@	c #555555",
"#	c #4F4F4F",
"$	c #474747",
"%	c #3E3E3E",
"&	c #393939",
"*	c #444444",
"=	c #3B3B3B",
"-	c #3D3D3D",
";	c #3C3C3C",
">	c #494949",
",	c #3F3F3F",
"'	c #3B4042",
")	c #0964A4",
"!	c #0A7AC7",
"~	c #047BCD",
"{	c #0A5E99",
"]	c #3B4043",
"^	c #454545",
"/	c #414141",
"(	c #105A8D",
"_	c #007CD2",
":	c #199FFD",
"<	c #0B9AFF",
"[	c #0174C5",
"}	c #115788",
"|	c #09609C",
"1	c #007DD4",
"2	c #0081DC",
"3	c #0078CC",
"4	c #075993",
"5	c #424242",
"6	c #0868AA",
"7	c #0093FA",
"8	c #0084E0",
"9	c #0086E4",
"0	c #0087E6",
"a	c #065A95",
"b	c #13537F",
"c	c #008EF2",
"d	c #119CFD",
"e	c #0598FF",
"f	c #0386E1",
"g	c #1B5178",
"h	c #464646",
"i	c #484848",
"j	c #454C52",
"k	c #1D5984",
"l	c #0E6CAF",
"m	c #0970B7",
"n	c #1A5E8E",
"o	c #444B50",
"p	c #4B4B4B",
"q	c #4C4C4C",
"r	c #535353",
"s	c #5B5B5B",
"t	c #515151",
"u	c #4E4E4E",
"....................",
"++++++++++++++++++++",
"@@@@@@@@@@@@@@@@@@@@",
"####################",
"####################",
"####################",
"####################",
"####################",
"#######$%&&%$#######",
"######*=----;*######",
"#####>,')!~{]%>#####",
"#####^/(_:<[}/^#####",
".....*/|12234**.....",
">>>>>^567890a*^>>>>>",
">>>>>$$bcdefghi>>>>>",
">>>>>>>jklmno>>>>>>>",
">>>>>>pqrsstqp>>>>>>",
">>>>>>>qu##uq>>>>>>>",
">>>>>>>>>>>>>>>>>>>>",
">>>>>>>>>>>>>>>>>>>>",
">>>>>>>>>>>>>>>>>>>>",
">>>>>>>>>>>>>>>>>>>>",
">>>>>>>>>>>>>>>>>>>>",
">>>>>>>>>>>>>>>>>>>>"};
