/* XPM */
static char * shade_pressed_xpm[] = {
"20 24 6 1",
" 	c None",
".	c #4D4D4D",
"+	c #5C5C5C",
"@	c #555555",
"#	c #4F4F4F",
"$	c #494949",
"....................",
"++++++++++++++++++++",
"@@@@@@@@@@@@@@@@@@@@",
"####################",
"####################",
"####################",
"####################",
"####################",
"####################",
"####################",
"####################",
"####################",
"....................",
"$$$$$$$$$$$$$$$$$$$$",
"$$$$$$$$$$$$$$$$$$$$",
"$$$$$$$$$$$$$$$$$$$$",
"$$$$$$$$$$$$$$$$$$$$",
"$$$$$$$$$$$$$$$$$$$$",
"$$$$$$$$$$$$$$$$$$$$",
"$$$$$$$$$$$$$$$$$$$$",
"$$$$$$$$$$$$$$$$$$$$",
"$$$$$$$$$$$$$$$$$$$$",
"$$$$$$$$$$$$$$$$$$$$",
"$$$$$$$$$$$$$$$$$$$$"};
