/* XPM */
static char * close_prelight_xpm[] = {
"20 24 76 1",
" 	c None",
".	c #B6B6B6",
"+	c #ECECEC",
"@	c #E2E2E2",
"#	c #E1E1E1",
"$	c #C9C9C9",
"%	c #AEAEAE",
"&	c #9C9C9C",
"*	c #9F9F9F",
"=	c #E0E0E0",
"-	c #BEBEBE",
";	c #A2A2A2",
">	c #A3A3A3",
",	c #DFDFDF",
"'	c #CCCCCC",
")	c #AAAAAA",
"!	c #A9A9A9",
"~	c #5FB8F5",
"{	c #71C1FA",
"]	c #6EC0FA",
"^	c #6CBAF2",
"/	c #BCBCBC",
"(	c #B0B0B0",
"_	c #47ABF0",
":	c #3DAFFF",
"<	c #83CCFF",
"[	c #77C7FF",
"}	c #33ABFF",
"|	c #62B3EC",
"1	c #B1B1B1",
"2	c #BDBDBD",
"3	c #DCDCDC",
"4	c #B8B9B9",
"5	c #B2B2B2",
"6	c #20A2FD",
"7	c #3FB0FF",
"8	c #49B4FF",
"9	c #37ADFF",
"0	c #30A6F8",
"a	c #B9B8B9",
"b	c #D6D6D6",
"c	c #B7B6B8",
"d	c #2FA8FC",
"e	c #65C0FF",
"f	c #4BB5FF",
"g	c #51B7FF",
"h	c #2DA5F8",
"i	c #C8C8C8",
"j	c #C2C1C3",
"k	c #5FABE0",
"l	c #5FBDFF",
"m	c #7CC9FE",
"n	c #71C4FF",
"o	c #56B8FD",
"p	c #7BB5DD",
"q	c #C3C3C3",
"r	c #C9C8C9",
"s	c #D2D2D2",
"t	c #CBCBCB",
"u	c #C3C5C8",
"v	c #70B7E9",
"w	c #62B8F5",
"x	c #63B8F3",
"y	c #80BCE7",
"z	c #C8C9CB",
"A	c #D4D4D4",
"B	c #D3D3D3",
"C	c #D1D1D1",
"D	c #E2E1E1",
"E	c #F5F5F5",
"F	c #F4F4F4",
"G	c #DDDDDD",
"H	c #D1D2D2",
"I	c #D5D5D5",
"J	c #D7D7D7",
"K	c #D8D8D8",
"....................",
"++++++++++++++++++++",
"++++++++++++++++++++",
"@@@@@@@@@@@@@@@@@@@@",
"####################",
"####################",
"####################",
"####################",
"#######$%&*%$#######",
"======-;>>>;>-======",
",,,,,')!~{]^))',,,,,",
",,,,,/(_:<[}|12,,,,,",
"3333345678890.a33333",
"bbbbb2cdefggh22bbbbb",
"bbbbbijklmnopqrbbbbb",
"bbbbbstuvwxyztsbbbbb",
"AAAAAABCDEFGHBAAAAAA",
"AAAAAAAIJKKJIAAAAAAA",
"BBAABBBBBBBBBBBBBBBB",
"BBBBBBBBBBBBBBBBBBBB",
"ssssssssssssssssssss",
"ssssssssssssssssssss",
"ssssssssssssssssssss",
"CCCCCCCCCCCCCCCCCCCC"};
