/* XPM */
static char * menu_active_xpm[] = {
"20 24 77 1",
" 	c None",
".	c #B6B6B6",
"+	c #ECECEC",
"@	c #E2E2E2",
"#	c #E1E1E1",
"$	c #C9C9C9",
"%	c #AEAEAE",
"&	c #9C9C9C",
"*	c #9F9F9F",
"=	c #E0E0E0",
"-	c #BEBEBE",
";	c #A2A2A2",
">	c #A3A3A3",
",	c #DFDFDF",
"'	c #CCCCCC",
")	c #AAAAAA",
"!	c #A9A9A9",
"~	c #4991C4",
"{	c #3893D4",
"]	c #4296D1",
"^	c #5D9AC4",
"/	c #BCBCBC",
"(	c #B0B0B0",
"_	c #4781A9",
":	c #007CD2",
"<	c #199FFD",
"[	c #0B9AFF",
"}	c #0174C5",
"|	c #6293B4",
"1	c #B1B1B1",
"2	c #BDBDBD",
"3	c #DCDCDC",
"4	c #B8B9B9",
"5	c #B2B2B2",
"6	c #106CAC",
"7	c #007DD4",
"8	c #0081DC",
"9	c #0078CC",
"0	c #2C76A9",
"a	c #B9B8B9",
"b	c #D6D6D6",
"c	c #B7B6B8",
"d	c #1174B9",
"e	c #0093FA",
"f	c #0084E0",
"g	c #0086E4",
"h	c #0087E6",
"i	c #2673AA",
"j	c #C8C8C8",
"k	c #C2C1C3",
"l	c #5F89A7",
"m	c #008EF2",
"n	c #119CFD",
"o	c #0598FF",
"p	c #0386E1",
"q	c #7B9BB1",
"r	c #C3C3C3",
"s	c #C9C8C9",
"t	c #D2D2D2",
"u	c #CBCBCB",
"v	c #C3C5C8",
"w	c #709AB7",
"x	c #3691D2",
"y	c #3F93CE",
"z	c #80A4BD",
"A	c #C8C9CB",
"B	c #D4D4D4",
"C	c #D3D3D3",
"D	c #D1D1D1",
"E	c #E2E1E1",
"F	c #F5F5F5",
"G	c #F4F4F4",
"H	c #DDDDDD",
"I	c #D1D2D2",
"J	c #D5D5D5",
"K	c #D7D7D7",
"L	c #D8D8D8",
"....................",
"++++++++++++++++++++",
"++++++++++++++++++++",
"@@@@@@@@@@@@@@@@@@@@",
"####################",
"####################",
"####################",
"####################",
"#######$%&*%$#######",
"======-;>>>;>-======",
",,,,,')!~{]^))',,,,,",
",,,,,/(_:<[}|12,,,,,",
"3333345678890.a33333",
"bbbbb2cdefghi22bbbbb",
"bbbbbjklmnopqrsbbbbb",
"bbbbbtuvwxyzAutbbbbb",
"BBBBBBCDEFGHICBBBBBB",
"BBBBBBBJKLLKJBBBBBBB",
"CCBBCCCCCCCCCCCCCCCC",
"CCCCCCCCCCCCCCCCCCCC",
"tttttttttttttttttttt",
"tttttttttttttttttttt",
"tttttttttttttttttttt",
"DDDDDDDDDDDDDDDDDDDD"};
