/* XPM */
static char * close_inactive_xpm[] = {
"20 24 62 1",
" 	c None",
".	c #B6B6B6",
"+	c #ECECEC",
"@	c #E2E2E2",
"#	c #E1E1E1",
"$	c #C8C8C8",
"%	c #ADADAD",
"&	c #9C9C9C",
"*	c #9E9E9E",
"=	c #E0E0E0",
"-	c #BEBEBE",
";	c #A2A2A2",
">	c #A4A4A4",
",	c #A3A3A3",
"'	c #DFDFDF",
")	c #CCCCCC",
"!	c #A9A9A9",
"~	c #B0B0B0",
"{	c #BBBBBB",
"]	c #BABABA",
"^	c #B4B4B5",
"/	c #BCBCBC",
"(	c #AFAFAF",
"_	c #A7A7A7",
":	c #C7C7C7",
"<	c #C1C1C1",
"[	c #AAADAF",
"}	c #DCDCDC",
"|	c #B8B9B8",
"1	c #B2B2B2",
"2	c #989898",
"3	c #A8A8A8",
"4	c #ACACAC",
"5	c #9A9EA0",
"6	c #B8B8B9",
"7	c #D6D6D6",
"8	c #BDBDBD",
"9	c #B6B6B7",
"0	c #B9B9B9",
"a	c #999D9F",
"b	c #C1C1C2",
"c	c #A1A6A9",
"d	c #C3C3C3",
"e	c #AAB3B9",
"f	c #C2C2C2",
"g	c #C9C7C8",
"h	c #D2D2D2",
"i	c #CACACA",
"j	c #C2C4C7",
"k	c #B1B1B1",
"l	c #B4B7B8",
"m	c #C7C8CA",
"n	c #D4D4D4",
"o	c #D1D1D1",
"p	c #E2E1E0",
"q	c #F5F5F5",
"r	c #F4F4F4",
"s	c #D1D2D1",
"t	c #D5D5D5",
"u	c #D7D7D7",
"v	c #D8D8D8",
"w	c #D3D3D3",
"....................",
"++++++++++++++++++++",
"++++++++++++++++++++",
"@@@@@@@@@@@@@@@@@@@@",
"####################",
"####################",
"####################",
"####################",
"#######$%&*%$#######",
"======-;>>>,,-======",
"''''')!!~{]^!!)'''''",
"'''''/(;_:<;[~/'''''",
"}}}}}|12344>5.6}}}}}",
"7777789*0%~~a/877777",
"77777:bc.d-~efg77777",
"77777hijkkklmih77777",
"nnnnnnhopqr}shnnnnnn",
"nnnnnnntuvuutnnnnnnn",
"wwwwwwwwwwwwwwwwwwww",
"wwwwwwwwwwwwwwwwwwww",
"hhhhhhhhhhhhhhhhhhhh",
"hhhhhhhhhhhhhhhhhhhh",
"hhhhhhhhhhhhhhhhhhhh",
"oooooooooooooooooooo"};
