/* XPM */
static char * close_pressed_xpm[] = {
"20 24 73 1",
" 	c None",
".	c #B6B6B6",
"+	c #ECECEC",
"@	c #E2E2E2",
"#	c #E1E1E1",
"$	c #C8C8C8",
"%	c #ADADAD",
"&	c #9C9C9C",
"*	c #9E9E9E",
"=	c #E0E0E0",
"-	c #BEBEBE",
";	c #A2A2A2",
">	c #A3A3A3",
",	c #DFDFDF",
"'	c #CCCCCC",
")	c #A9A9A9",
"!	c #618CC7",
"~	c #6899DC",
"{	c #6396DA",
"]	c #7196C7",
"^	c #BCBCBC",
"/	c #AFAFAF",
"(	c #5B7EAC",
"_	c #3076D5",
":	c #79A7E4",
"<	c #6E9FE1",
"[	c #2B6FCC",
"}	c #728EB4",
"|	c #B0B0B0",
"1	c #DCDCDC",
"2	c #B8B9B8",
"3	c #B2B2B2",
"4	c #3066B1",
"5	c #3277D5",
"6	c #3D7FD8",
"7	c #2A72D3",
"8	c #4571AC",
"9	c #B8B8B9",
"0	c #D6D6D6",
"a	c #BDBDBD",
"b	c #B6B6B7",
"c	c #326DBE",
"d	c #5A92DD",
"e	c #4685D9",
"f	c #406FAC",
"g	c #C7C7C7",
"h	c #C1C1C2",
"i	c #6D86A8",
"j	c #558EDC",
"k	c #71A1E2",
"l	c #6599E0",
"m	c #4986D8",
"n	c #8699B3",
"o	c #C2C2C2",
"p	c #C9C7C8",
"q	c #D2D2D2",
"r	c #CACACA",
"s	c #C2C4C7",
"t	c #7F97B9",
"u	c #588DD5",
"v	c #5B8ED1",
"w	c #8CA1BD",
"x	c #C7C8CA",
"y	c #D4D4D4",
"z	c #D1D1D1",
"A	c #E2E1E0",
"B	c #F5F5F5",
"C	c #F4F4F4",
"D	c #D1D2D1",
"E	c #D5D5D5",
"F	c #D7D7D7",
"G	c #D8D8D8",
"H	c #D3D3D3",
"....................",
"++++++++++++++++++++",
"++++++++++++++++++++",
"@@@@@@@@@@@@@@@@@@@@",
"####################",
"####################",
"####################",
"####################",
"#######$%&*%$#######",
"======-;>>>;>-======",
",,,,,'))!~{]))',,,,,",
",,,,,^/(_:<[}|^,,,,,",
"1111123456678.911111",
"00000abcd6eef^a00000",
"00000ghijklmnop00000",
"00000qrstuvwxrq00000",
"yyyyyyqzABC1Dqyyyyyy",
"yyyyyyyEFGFFEyyyyyyy",
"HHyyHHHHHHHHHHHHHHHH",
"HHHHHHHHHHHHHHHHHHHH",
"qqqqqqqqqqqqqqqqqqqq",
"qqqqqqqqqqqqqqqqqqqq",
"qqqqqqqqqqqqqqqqqqqq",
"zzzzzzzzzzzzzzzzzzzz"};
