/* XPM */
static char * top_left_active_xpm[] = {
"8 24 13 1",
" 	c None",
".	c #B6B6B6",
"+	c #ECECEC",
"@	c #E2E2E2",
"#	c #E1E1E1",
"$	c #E0E0E0",
"%	c #DFDFDF",
"&	c #DCDCDC",
"*	c #D6D6D6",
"=	c #D4D4D4",
"-	c #D3D3D3",
";	c #D2D2D2",
">	c #D1D1D1",
"     ...",
"   ..+++",
"  .+++++",
" .@@@@@@",
" .######",
".#######",
".#######",
".#######",
".#######",
".$$$$$$$",
".%%%%%%%",
".%%%%%%%",
".&&&&&&&",
".*******",
".*******",
".*******",
".=======",
".=======",
".-------",
".-------",
".;;;;;;;",
".;;;;;;;",
".;;;;;;;",
".>>>>>>>"};
