/* XPM */
static char * maximize_active_xpm[] = {
"20 25 44 1",
" 	c None",
".	c #3C3C3C",
"+	c #707070",
"@	c #515151",
"#	c #505050",
"$	c #4F4F4F",
"%	c #4E4E4E",
"&	c #4D4D4D",
"*	c #4C4C4C",
"=	c #4B4B4B",
"-	c #BDBDBD",
";	c #B5B5B5",
">	c #BCBCBC",
",	c #575757",
"'	c #4A4A4A",
")	c #D4D4D4",
"!	c #D2D2D2",
"~	c #CFCFCF",
"{	c #D1D1D1",
"]	c #5A5A5A",
"^	c #D5D5D5",
"/	c #8A8A8A",
"(	c #494949",
"_	c #8E8E8E",
":	c #595959",
"<	c #484848",
"[	c #585858",
"}	c #474747",
"|	c #8D8D8D",
"1	c #464646",
"2	c #878787",
"3	c #565656",
"4	c #454545",
"5	c #D0D0D0",
"6	c #555555",
"7	c #444444",
"8	c #BBBBBB",
"9	c #434343",
"0	c #424242",
"a	c #414141",
"b	c #404040",
"c	c #3F3F3F",
"d	c #3E3E3E",
"e	c #3D3D3D",
"....................",
"++++++++++++++++++++",
"@@@@@@@@@@@@@@@@@@@@",
"####################",
"$$$$$$$$$$$$$$$$$$$$",
"%%%%%%%%%%%%%%%%%%%%",
"&&&&&&&&&&&&&&&&&&&&",
"********************",
"=====-;;;;;;>,======",
"''''')!~~~~{)]''''''",
"'''''^/''''@^]''''''",
"((((()_((((:^:((((((",
"<<<<<)_<<<<[^[<<<<<<",
"}}}}})|}}}},^,}}}}}}",
"11111^21111&^3111111",
"44444^!5555{^6444444",
"777778;;;;;;>@777777",
"99999999999999999999",
"99999999999999999999",
"00000000000000000000",
"aaaaaaaaaaaaaaaaaaaa",
"bbbbbbbbbbbbbbbbbbbb",
"cccccccccccccccccccc",
"dddddddddddddddddddd",
"eeeeeeeeeeeeeeeeeeee"};
