/* XPM */
static char * maximize_inactive_xpm[] = {
"20 25 38 1",
" 	c None",
".	c #3C3C3C",
"+	c #666666",
"@	c #515151",
"#	c #505050",
"$	c #4F4F4F",
"%	c #4E4E4E",
"&	c #4D4D4D",
"*	c #4C4C4C",
"=	c #4B4B4B",
"-	c #838383",
";	c #7F7F7F",
">	c #4A4A4A",
",	c #8E8E8E",
"'	c #8D8D8D",
")	c #8C8C8C",
"!	c #525252",
"~	c #696969",
"{	c #494949",
"]	c #6B6B6B",
"^	c #484848",
"/	c #6A6A6A",
"(	c #474747",
"_	c #464646",
":	c #454545",
"<	c #8B8B8B",
"[	c #898989",
"}	c #8A8A8A",
"|	c #444444",
"1	c #7E7E7E",
"2	c #7B7B7B",
"3	c #434343",
"4	c #424242",
"5	c #414141",
"6	c #404040",
"7	c #3F3F3F",
"8	c #3E3E3E",
"9	c #3D3D3D",
"....................",
"++++++++++++++++++++",
"@@@@@@@@@@@@@@@@@@@@",
"####################",
"$$$$$$$$$$$$$$$$$$$$",
"%%%%%%%%%%%%%%%%%%%%",
"&&&&&&&&&&&&&&&&&&&&",
"********************",
"=====-;;;;;;-@======",
">>>>>,'))))',!>>>>>>",
">>>>>,~>>>>&,!>>>>>>",
"{{{{{']{{{{@,@{{{{{{",
"^^^^^'/^^^^#'#^^^^^^",
"((((()/(((($'$((((((",
"_____)+____{)%______",
":::::)<[[[[})&::::::",
"|||||1222222;>||||||",
"33333333333333333333",
"33333333333333333333",
"44444444444444444444",
"55555555555555555555",
"66666666666666666666",
"77777777777777777777",
"88888888888888888888",
"99999999999999999999"};
