<?xml version="1.0" encoding="UTF-8" standalone="no"?>
<!-- Created with Inkscape (http://www.inkscape.org/) -->

<svg
   xmlns:dc="http://purl.org/dc/elements/1.1/"
   xmlns:cc="http://creativecommons.org/ns#"
   xmlns:rdf="http://www.w3.org/1999/02/22-rdf-syntax-ns#"
   xmlns:svg="http://www.w3.org/2000/svg"
   xmlns="http://www.w3.org/2000/svg"
   xmlns:sodipodi="http://sodipodi.sourceforge.net/DTD/sodipodi-0.dtd"
   xmlns:inkscape="http://www.inkscape.org/namespaces/inkscape"
   width="22"
   height="22"
   id="svg13094"
   version="1.1"
   inkscape:version="0.48.3.1 r9886"
   sodipodi:docname="object-visible.svg">
  <sodipodi:namedview
     id="base"
     pagecolor="#ffffff"
     bordercolor="#666666"
     borderopacity="1.0"
     inkscape:pageopacity="0.0"
     inkscape:pageshadow="2"
     inkscape:zoom="32"
     inkscape:cx="11.251761"
     inkscape:cy="11.573009"
     inkscape:document-units="px"
     inkscape:current-layer="layer1"
     showgrid="true"
     inkscape:snap-bbox="true"
     inkscape:bbox-paths="true"
     inkscape:bbox-nodes="true"
     inkscape:snap-bbox-edge-midpoints="true"
     inkscape:snap-bbox-midpoints="true"
     inkscape:object-paths="true"
     inkscape:snap-intersection-paths="true"
     inkscape:object-nodes="true"
     inkscape:snap-smooth-nodes="true"
     inkscape:snap-midpoints="true"
     inkscape:snap-object-midpoints="true"
     inkscape:snap-center="true"
     showguides="false"
     inkscape:guide-bbox="true"
     inkscape:window-width="1920"
     inkscape:window-height="1027"
     inkscape:window-x="-10"
     inkscape:window-y="31"
     inkscape:window-maximized="1"
     inkscape:snap-global="true"
     fit-margin-top="0"
     fit-margin-left="0"
     fit-margin-right="0"
     fit-margin-bottom="0"
     showborder="true"
     inkscape:showpageshadow="false">
    <sodipodi:guide
       orientation="0,1"
       position="-20.000165,933.61275"
       id="guide4700" />
    <sodipodi:guide
       orientation="0,1"
       position="581.7187,331.89377"
       id="guide4702" />
    <sodipodi:guide
       orientation="1,0"
       position="581.71882,492.70384"
       id="guide4706" />
    <sodipodi:guide
       orientation="1,0"
       position="59.999836,933.61275"
       id="guide4708" />
    <sodipodi:guide
       orientation="0,1"
       position="-20.000165,853.61285"
       id="guide4710" />
    <sodipodi:guide
       orientation="0,1"
       position="541.7187,411.89369"
       id="guide4712" />
    <sodipodi:guide
       orientation="1,0"
       position="501.7187,411.89369"
       id="guide4714" />
    <inkscape:grid
       type="xygrid"
       id="grid3216"
       empspacing="5"
       visible="true"
       enabled="true"
       snapvisiblegridlinesonly="true"
       originx="-20.000111px"
       originy="-216.00016px" />
    <sodipodi:guide
       orientation="-0.70710664,0.70710692"
       position="8.9998902,-243.00016"
       id="guide3847" />
    <sodipodi:guide
       orientation="0.70710594,0.70710762"
       position="9.9998902,-242.00016"
       id="guide3849" />
    <sodipodi:guide
       orientation="-0.70710681,0.70710676"
       position="11.99989,-209.00016"
       id="guide3851" />
  </sodipodi:namedview>
  <defs
     id="defs13096" />
  <metadata
     id="metadata13099">
    <rdf:RDF>
      <cc:Work
         rdf:about="">
        <dc:format>image/svg+xml</dc:format>
        <dc:type
           rdf:resource="http://purl.org/dc/dcmitype/StillImage" />
        <dc:title />
      </cc:Work>
    </rdf:RDF>
  </metadata>
  <g
     transform="translate(9384.3076,-4840.1987)"
     id="layer1"
     inkscape:groupmode="layer"
     inkscape:label="Camada 1">
    <path
       style="font-size:medium;font-style:normal;font-variant:normal;font-weight:normal;font-stretch:normal;text-indent:0;text-align:start;text-decoration:none;line-height:normal;letter-spacing:normal;word-spacing:normal;text-transform:none;direction:ltr;block-progression:tb;writing-mode:lr-tb;text-anchor:start;baseline-shift:baseline;color:#000000;fill:#d1d4d6;fill-opacity:0.74329164;fill-rule:nonzero;stroke:none;stroke-width:2;marker:none;visibility:visible;display:inline;overflow:visible;enable-background:accumulate;font-family:Sans;-inkscape-font-specification:Sans"
       d="m -9373.3076,4843.0112 c -6.9333,0 -11.0313,7.5937 -11.0313,7.5937 l -0.6875,1.1875 1.0625,0.4375 c 0.2183,0.2989 1.1822,1.6763 2.9688,3.3438 1.9722,1.8408 4.6275,3.8125 7.6875,3.8125 3.06,0 5.7153,-1.9717 7.6875,-3.8125 1.7866,-1.6675 2.7506,-3.0449 2.9687,-3.3438 l 1.0625,-0.4375 -0.6875,-1.1875 c 0,0 -4.0979,-7.5937 -11.0312,-7.5937 z m 0,1.1875 c 6,0 10,7 10,7 0,0 -5,7 -10,7 -5,0 -10,-7 -10,-7 0,0 4,-7 10,-7 z m -10,7 c 0,0 5,5 10,5 5,0 10,-5 10,-5 l -2,0 c 0,0 -1.2067,-1.5747 -3.3438,-2.75 0.2072,0.5488 0.3438,1.1287 0.3438,1.75 0,2.7614 -2.2386,5 -5,5 -2.7614,0 -5,-2.2386 -5,-5 0,-0.6213 0.1366,-1.2012 0.3437,-1.75 -2.137,1.1753 -3.3437,2.75 -3.3437,2.75 l -2,0 z m 10,-2 c -0.5523,0 -1,0.4477 -1,1 0,0.5523 0.4477,1 1,1 0.5523,0 1,-0.4477 1,-1 0,-0.5523 -0.4477,-1 -1,-1 z"
       id="path3038"
       inkscape:connector-curvature="0" />
    <path
       id="path3001"
       d="m -9373.3076,4844.1987 c -6,0 -10,7 -10,7 l 2,0 c 0,0 1.2067,-1.5747 3.3437,-2.75 -0.2071,0.5488 -0.3437,1.1287 -0.3437,1.75 0,2.7614 2.2386,5 5,5 2.7614,0 5,-2.2386 5,-5 0,-0.6213 -0.1366,-1.2012 -0.3438,-1.75 2.1371,1.1753 3.3438,2.75 3.3438,2.75 l 2,0 c 0,0 -4,-7 -10,-7 z m 10,7 c 0,0 -5,5 -10,5 -5,0 -10,-5 -10,-5 0,0 5,7 10,7 5,0 10,-7 10,-7 z m -10,-2 c 0.5523,0 1,0.4477 1,1 0,0.5523 -0.4477,1 -1,1 -0.5523,0 -1,-0.4477 -1,-1 0,-0.5523 0.4477,-1 1,-1 z"
       style="color:#000000;fill:#434a55;fill-opacity:0.6745098;fill-rule:nonzero;stroke:none;stroke-width:2;marker:none;visibility:visible;display:inline;overflow:visible;enable-background:accumulate"
       inkscape:connector-curvature="0" />
  </g>
</svg>
