<?xml version="1.0" encoding="UTF-8" standalone="no"?>
<!-- Created with Inkscape (http://www.inkscape.org/) -->

<svg
   xmlns:dc="http://purl.org/dc/elements/1.1/"
   xmlns:cc="http://creativecommons.org/ns#"
   xmlns:rdf="http://www.w3.org/1999/02/22-rdf-syntax-ns#"
   xmlns:svg="http://www.w3.org/2000/svg"
   xmlns="http://www.w3.org/2000/svg"
   xmlns:xlink="http://www.w3.org/1999/xlink"
   xmlns:sodipodi="http://sodipodi.sourceforge.net/DTD/sodipodi-0.dtd"
   xmlns:inkscape="http://www.inkscape.org/namespaces/inkscape"
   width="22"
   height="22"
   id="svg13094"
   version="1.1"
   inkscape:version="0.48.3.1 r9886"
   sodipodi:docname="mandrivaupdate.svg">
  <sodipodi:namedview
     id="base"
     pagecolor="#ffffff"
     bordercolor="#666666"
     borderopacity="1.0"
     inkscape:pageopacity="0.0"
     inkscape:pageshadow="2"
     inkscape:zoom="32.000002"
     inkscape:cx="13.724978"
     inkscape:cy="13.047956"
     inkscape:document-units="px"
     inkscape:current-layer="layer1"
     showgrid="true"
     inkscape:snap-bbox="true"
     inkscape:bbox-paths="true"
     inkscape:bbox-nodes="true"
     inkscape:snap-bbox-edge-midpoints="true"
     inkscape:snap-bbox-midpoints="true"
     inkscape:object-paths="true"
     inkscape:snap-intersection-paths="true"
     inkscape:object-nodes="true"
     inkscape:snap-smooth-nodes="true"
     inkscape:snap-midpoints="true"
     inkscape:snap-object-midpoints="true"
     inkscape:snap-center="true"
     showguides="true"
     inkscape:guide-bbox="true"
     inkscape:window-width="1920"
     inkscape:window-height="1033"
     inkscape:window-x="-10"
     inkscape:window-y="25"
     inkscape:window-maximized="1"
     inkscape:snap-global="true"
     fit-margin-top="0"
     fit-margin-left="0"
     fit-margin-right="0"
     fit-margin-bottom="0"
     showborder="true"
     inkscape:showpageshadow="false">
    <inkscape:grid
       type="xygrid"
       id="grid3183"
       empspacing="5"
       visible="true"
       enabled="true"
       snapvisiblegridlinesonly="true"
       originx="9.5192791e-05px"
       originy="10.999988px" />
  </sodipodi:namedview>
  <defs
     id="defs13096">
    <linearGradient
       id="linearGradient7209-1">
      <stop
         id="stop7211-8"
         offset="0"
         style="stop-color:#6e6e6e;stop-opacity:0.61170512;" />
      <stop
         id="stop7213-9"
         offset="1"
         style="stop-color:#000000;stop-opacity:0.65503657;" />
    </linearGradient>
    <linearGradient
       id="linearGradient9097">
      <stop
         style="stop-color:#ffffff;stop-opacity:0.61564434;"
         offset="0"
         id="stop9099" />
      <stop
         style="stop-color:#ffffff;stop-opacity:1;"
         offset="1"
         id="stop9101" />
    </linearGradient>
    <linearGradient
       id="linearGradient7251">
      <stop
         style="stop-color:#000000;stop-opacity:0.39561057;"
         offset="0"
         id="stop7253" />
      <stop
         style="stop-color:#000000;stop-opacity:0.2824986;"
         offset="1"
         id="stop7255" />
    </linearGradient>
    <linearGradient
       inkscape:collect="always"
       xlink:href="#linearGradient7209-1"
       id="linearGradient3091"
       gradientUnits="userSpaceOnUse"
       x1="-3195.6418"
       y1="493.84024"
       x2="-3195.6418"
       y2="36.123241" />
    <linearGradient
       inkscape:collect="always"
       xlink:href="#linearGradient9097"
       id="linearGradient3093"
       gradientUnits="userSpaceOnUse"
       gradientTransform="translate(19.900645,19.900678)"
       x1="-3195.6418"
       y1="493.84024"
       x2="-3195.6418"
       y2="36.123241" />
    <linearGradient
       inkscape:collect="always"
       xlink:href="#linearGradient7251"
       id="linearGradient3095"
       gradientUnits="userSpaceOnUse"
       x1="-3673.2571"
       y1="513.74091"
       x2="-3673.2571"
       y2="36.124592" />
  </defs>
  <metadata
     id="metadata13099">
    <rdf:RDF>
      <cc:Work
         rdf:about="">
        <dc:format>image/svg+xml</dc:format>
        <dc:type
           rdf:resource="http://purl.org/dc/dcmitype/StillImage" />
        <dc:title />
      </cc:Work>
    </rdf:RDF>
  </metadata>
  <g
     transform="translate(9398.6161,-4991.8786)"
     id="layer1"
     inkscape:groupmode="layer"
     inkscape:label="Camada 1">
    <g
       transform="matrix(0.02512477,0,0,0.02512477,-9310.3262,5038.971)"
       id="16">
      <rect
         y="-43.478539"
         x="-3514.0554"
         height="636.82166"
         width="636.82166"
         id="rect3044"
         style="opacity:0.00100002;fill:#ffffff;fill-opacity:1;fill-rule:nonzero;stroke:none" />
      <g
         transform="matrix(0.02512477,0,0,0.02512477,-9310.3255,4998.9715)"
         id="use3046">
        <path
           inkscape:connector-curvature="0"
           style="font-size:medium;font-style:normal;font-variant:normal;font-weight:normal;font-stretch:normal;text-indent:0;text-align:start;text-decoration:none;line-height:normal;letter-spacing:normal;word-spacing:normal;text-transform:none;direction:ltr;block-progression:tb;writing-mode:lr-tb;text-anchor:start;baseline-shift:baseline;color:#000000;fill:url(#linearGradient3091);fill-opacity:1;stroke:none;stroke-width:2;marker:none;visibility:visible;display:inline;overflow:visible;enable-background:accumulate;font-family:Sans;-inkscape-font-specification:Sans"
           d="m -3394.65,36.123713 159.2054,159.205437 0,-79.60272 39.8014,0 c 88.3982,0 159.2054,70.80727 159.2054,159.20544 0,37.07142 -12.6016,71.30055 -33.5824,98.2596 l 55.9707,55.97066 c 35.4778,-41.69861 57.2144,-95.47839 57.2144,-154.23026 0,-131.41867 -107.3895,-238.808157 -238.8081,-238.808157 l -199.0068,0 z m 17.4131,84.577887 c -35.4778,41.69861 -57.2145,95.4784 -57.2145,154.23027 0,131.41867 107.3896,238.80815 238.8082,238.80815 l 199.0068,0 -159.2055,-159.20544 0,79.60272 -39.8013,0 c -88.3982,0 -159.2055,-70.80725 -159.2055,-159.20543 0,-37.07142 12.6016,-71.30056 33.5824,-98.25961 l -55.9706,-55.97066 z"
           id="path3085" />
        <path
           style="font-size:medium;font-style:normal;font-variant:normal;font-weight:normal;font-stretch:normal;text-indent:0;text-align:start;text-decoration:none;line-height:normal;letter-spacing:normal;word-spacing:normal;text-transform:none;direction:ltr;block-progression:tb;writing-mode:lr-tb;text-anchor:start;baseline-shift:baseline;color:#000000;fill:url(#linearGradient3093);fill-opacity:1;stroke:none;stroke-width:2;marker:none;visibility:visible;display:inline;overflow:visible;enable-background:accumulate;font-family:Sans;-inkscape-font-specification:Sans"
           d="m -3235.4406,115.72643 0,79.60272 19.9007,19.90068 0,-79.60272 39.8013,0 c 38.9948,0 74.4105,14.32475 101.991,37.31377 -29.1253,-34.94249 -72.4882,-57.21445 -121.8916,-57.21445 l -39.8014,0 z m 217.6637,1.24379 c 37.5356,42.21707 60.9458,97.32547 60.9458,157.96165 0,58.75186 -21.7366,112.53165 -57.2144,154.23026 l 19.9006,19.90068 c 35.4778,-41.69861 57.2145,-95.4784 57.2145,-154.23026 0,-70.7825 -31.5653,-134.04589 -80.8465,-177.86233 z m -303.4854,59.70204 c -20.9808,26.95905 -33.5824,61.18818 -33.5824,98.25961 0,49.40343 22.272,92.7663 57.2145,121.89166 -22.9891,-27.58055 -37.3138,-62.99624 -37.3138,-101.99098 0,-37.07143 12.6016,-71.30056 33.5824,-98.25961 l -19.9007,-19.90068 z m -32.3386,276.12193 c 43.8165,49.28129 107.0799,80.84651 177.8623,80.84651 l 199.0068,0 -19.9007,-19.90068 -199.0067,0 c -60.6362,0 -115.7446,-23.41024 -157.9617,-60.94583 z"
           id="path3087"
           inkscape:connector-curvature="0" />
        <path
           style="font-size:medium;font-style:normal;font-variant:normal;font-weight:normal;font-stretch:normal;text-indent:0;text-align:start;text-decoration:none;line-height:normal;letter-spacing:normal;word-spacing:normal;text-transform:none;direction:ltr;block-progression:tb;writing-mode:lr-tb;text-anchor:start;baseline-shift:baseline;color:#000000;fill:url(#linearGradient3095);fill-opacity:1;stroke:none;stroke-width:2;marker:none;visibility:visible;display:inline;overflow:visible;enable-background:accumulate;font-family:Sans;-inkscape-font-specification:Sans"
           d="m -3394.6501,36.123713 19.9007,19.90068 199.0068,0 c 60.6361,0 115.7446,23.41024 157.9616,60.945827 -43.8165,-49.281267 -107.0799,-80.846507 -177.8623,-80.846507 l -199.0068,0 z m 17.4131,84.577887 c -35.4778,41.69861 -57.2145,95.4784 -57.2145,154.23027 0,70.78248 31.5653,134.04588 80.8465,177.86232 -37.5356,-42.21706 -60.9458,-97.32545 -60.9458,-157.96164 0,-58.75187 21.7367,-112.53166 57.2145,-154.23027 l -19.9007,-19.90068 z m 303.4854,52.23928 c 22.989,27.58057 37.3137,62.99623 37.3137,101.99099 0,37.07142 -12.6016,71.30055 -33.5824,98.2596 l 19.9007,19.90068 c 20.9808,-26.95905 33.5824,-61.18818 33.5824,-98.2596 0,-49.40342 -22.272,-92.7663 -57.2144,-121.89167 z m -82.0903,181.59371 0,79.60271 -39.8014,0 c -38.9948,0 -74.4104,-14.32474 -101.991,-37.31377 29.1254,34.94249 72.4882,57.21445 121.8917,57.21445 l 39.8013,0 0,-79.60272 -19.9006,-19.90067 z"
           id="path3089"
           inkscape:connector-curvature="0" />
      </g>
    </g>
    <path
       style="color:#000000;fill:#434a54;fill-opacity:0.6745098;fill-rule:nonzero;stroke:none;stroke-width:1;marker:none;visibility:visible;display:inline;overflow:visible;enable-background:accumulate"
       d="M 11,5 C 8.4582,5 6.18405,6.18315 4.71875,8.03125 L 3,6.3125 3,11 3.25,11 5.34375,11 7.6875,11 6.15625,9.46875 C 7.24755,7.97605 9.0091,7 11,7 c 2.9756,0 5.43325,2.1586 5.90625,5 L 17,12 l 0,1 2,0 0,-1 -0.0625,0 C 18.4437,8.0555 15.0783,5 11,5 z m -8,8 0,1 0.0625,0 c 0.4938,3.9445 3.8592,7 7.9375,7 2.5418,0 4.81595,-1.18315 6.28125,-3.03125 L 19,19.6875 19,15 l -0.25,0 -2.09375,0 -2.34375,0 1.53125,1.53125 C 14.75235,18.02395 12.9909,19 11,19 8.0244,19 5.56675,16.8414 5.09375,14 L 5,14 5,13 3,13 z"
       transform="translate(-9398.6161,4989.8786)"
       id="path3839"
       inkscape:connector-curvature="0" />
    <path
       style="font-size:medium;font-style:normal;font-variant:normal;font-weight:normal;font-stretch:normal;text-indent:0;text-align:start;text-decoration:none;line-height:normal;letter-spacing:normal;word-spacing:normal;text-transform:none;direction:ltr;block-progression:tb;writing-mode:lr-tb;text-anchor:start;baseline-shift:baseline;color:#000000;fill:#d1d4d6;fill-opacity:0.74329164;fill-rule:nonzero;stroke:none;stroke-width:2;marker:none;visibility:visible;display:inline;overflow:visible;enable-background:accumulate;font-family:Sans;-inkscape-font-specification:Sans"
       d="M 9.25,4 C 7.5544,4.3746 6.0508,5.2736 4.8125,6.4375 L 4,7.3125 4.71875,8.03125 C 6.18405,6.18315 8.4582,5 11,5 c 4.0783,0 7.4437,3.0555 7.9375,7 L 19,12 l 0,1 1,0 0,-1 0,-0.84375 C 19.2645,7.53545 16.40215,4.712 12.78125,4 L 9.25,4 z M 2,5 2,12 9,12 9,11 7.6875,11 5.34375,11 4,11 3.25,11 3,11 3,10 3,6.3125 3,5 2,5 z m 9,2 C 9.0091,7 7.24755,7.97605 6.15625,9.46875 L 6.9375,10.25 7.90625,9.53125 C 8.75195,8.77655 9.7732,8.1875 11,8.1875 c 0.9929,0 1.89745,0.3033 2.65625,0.8125 l 1.8125,0 C 14.37335,7.7724 12.7789,7 11,7 z m -9,6 0,1 0,0.84375 C 2.7355,18.46455 5.59785,21.288 9.21875,22 L 12.75,22 c 1.6956,-0.3746 3.1992,-1.2736 4.4375,-2.4375 L 18,18.6875 17.28125,17.96875 C 15.81595,19.81685 13.5418,21 11,21 6.9217,21 3.5563,17.9445 3.0625,14 L 3,14 3,13 2,13 z m 11,1 0,1 1.3125,0 2.34375,0 1.34375,0 0.75,0 0.25,0 0,1 0,3.6875 0,1.3125 1,0 0,-7 -7,0 z m 2.0625,1.75 -0.96875,0.71875 C 13.24805,17.22345 12.2268,17.8125 11,17.8125 10.0071,17.8125 9.10255,17.5092 8.34375,17 l -1.8125,0 c 1.0954,1.2276 2.68985,2 4.46875,2 1.9909,0 3.75245,-0.97605 4.84375,-2.46875 L 15.0625,15.75 z"
       transform="translate(-9398.6161,4989.8786)"
       id="path3835"
       inkscape:connector-curvature="0" />
  </g>
</svg>
