<?xml version="1.0" encoding="UTF-8" standalone="no"?>
<!-- Created with Inkscape (http://www.inkscape.org/) -->

<svg
   xmlns:dc="http://purl.org/dc/elements/1.1/"
   xmlns:cc="http://creativecommons.org/ns#"
   xmlns:rdf="http://www.w3.org/1999/02/22-rdf-syntax-ns#"
   xmlns:svg="http://www.w3.org/2000/svg"
   xmlns="http://www.w3.org/2000/svg"
   xmlns:sodipodi="http://sodipodi.sourceforge.net/DTD/sodipodi-0.dtd"
   xmlns:inkscape="http://www.inkscape.org/namespaces/inkscape"
   width="22"
   height="22"
   id="svg13094"
   version="1.1"
   inkscape:version="0.48.3.1 r9886"
   sodipodi:docname="view-list-compact.svg">
  <sodipodi:namedview
     id="base"
     pagecolor="#ffffff"
     bordercolor="#666666"
     borderopacity="1.0"
     inkscape:pageopacity="0.0"
     inkscape:pageshadow="2"
     inkscape:zoom="22.627418"
     inkscape:cx="5.2207209"
     inkscape:cy="13.157682"
     inkscape:document-units="px"
     inkscape:current-layer="svg13094"
     showgrid="true"
     inkscape:snap-bbox="true"
     inkscape:bbox-paths="true"
     inkscape:bbox-nodes="true"
     inkscape:snap-bbox-edge-midpoints="true"
     inkscape:snap-bbox-midpoints="true"
     inkscape:object-paths="true"
     inkscape:snap-intersection-paths="true"
     inkscape:object-nodes="true"
     inkscape:snap-smooth-nodes="true"
     inkscape:snap-midpoints="true"
     inkscape:snap-object-midpoints="true"
     inkscape:snap-center="true"
     showguides="true"
     inkscape:guide-bbox="true"
     inkscape:window-width="1920"
     inkscape:window-height="1027"
     inkscape:window-x="-10"
     inkscape:window-y="31"
     inkscape:window-maximized="1"
     inkscape:snap-global="true"
     fit-margin-top="0"
     fit-margin-left="0"
     fit-margin-right="0"
     fit-margin-bottom="0"
     showborder="true"
     inkscape:showpageshadow="false">
    <inkscape:grid
       type="xygrid"
       id="grid3075"
       empspacing="5"
       visible="true"
       enabled="true"
       snapvisiblegridlinesonly="true"
       originx="1.6362304e-08px"
       originy="4.9999976px" />
  </sodipodi:namedview>
  <defs
     id="defs13096" />
  <metadata
     id="metadata13099">
    <rdf:RDF>
      <cc:Work
         rdf:about="">
        <dc:format>image/svg+xml</dc:format>
        <dc:type
           rdf:resource="http://purl.org/dc/dcmitype/StillImage" />
        <dc:title />
      </cc:Work>
    </rdf:RDF>
  </metadata>
  <path
     id="path3013"
     d="m 15,3.0000024 0,4 6,0 0,-4 z m 1,1 4,0 0,2 -4,0 z"
     style="color:#000000;fill:#d1d4d6;fill-opacity:0.74329164;fill-rule:nonzero;stroke:none;stroke-width:2;marker:none;visibility:visible;display:inline;overflow:visible;enable-background:accumulate"
     inkscape:connector-curvature="0"
     sodipodi:nodetypes="cccccccccc" />
  <path
     sodipodi:nodetypes="cccccccccc"
     inkscape:connector-curvature="0"
     style="color:#000000;fill:#d1d4d6;fill-opacity:0.74329164;fill-rule:nonzero;stroke:none;stroke-width:2;marker:none;visibility:visible;display:inline;overflow:visible;enable-background:accumulate"
     d="m 15,9.000002 0,4 6,0 0,-4 z m 1,1 4,0 0,2 -4,0 z"
     id="path3001" />
  <path
     id="path3015"
     d="m 8,3.0000024 0,4 6,0 0,-4 z m 1,1 4,0 0,2 -4,0 z"
     style="color:#000000;fill:#d1d4d6;fill-opacity:0.74329164;fill-rule:nonzero;stroke:none;stroke-width:2;marker:none;visibility:visible;display:inline;overflow:visible;enable-background:accumulate"
     inkscape:connector-curvature="0"
     sodipodi:nodetypes="cccccccccc" />
  <path
     sodipodi:nodetypes="cccccccccc"
     inkscape:connector-curvature="0"
     style="color:#000000;fill:#d1d4d6;fill-opacity:0.74329164;fill-rule:nonzero;stroke:none;stroke-width:2;marker:none;visibility:visible;display:inline;overflow:visible;enable-background:accumulate"
     d="m 8,9.000002 0,4 6,0 0,-4 z m 1,1 4,0 0,2 -4,0 z"
     id="path3003" />
  <path
     id="path3020"
     d="m 8,15.000002 0,4 6,0 0,-4 z m 1,1 4,0 0,2 -4,0 z"
     style="color:#000000;fill:#d1d4d6;fill-opacity:0.74329164;fill-rule:nonzero;stroke:none;stroke-width:2;marker:none;visibility:visible;display:inline;overflow:visible;enable-background:accumulate"
     inkscape:connector-curvature="0"
     sodipodi:nodetypes="cccccccccc" />
  <path
     id="path3017"
     d="m 1,3.0000024 0,4 6,0 0,-4 z m 1,1 4,0 0,2 -4,0 z"
     style="color:#000000;fill:#d1d4d6;fill-opacity:0.74329164;fill-rule:nonzero;stroke:none;stroke-width:2;marker:none;visibility:visible;display:inline;overflow:visible;enable-background:accumulate"
     inkscape:connector-curvature="0"
     sodipodi:nodetypes="cccccccccc" />
  <path
     sodipodi:nodetypes="cccccccccc"
     inkscape:connector-curvature="0"
     style="color:#000000;fill:#d1d4d6;fill-opacity:0.74329164;fill-rule:nonzero;stroke:none;stroke-width:2;marker:none;visibility:visible;display:inline;overflow:visible;enable-background:accumulate"
     d="m 1,9.000002 0,4 6,0 0,-4 z m 1,1 4,0 0,2 -4,0 z"
     id="path3005" />
  <path
     id="path3022"
     d="m 1,15.000002 0,4 6,0 0,-4 z m 1,1 4,0 0,2 -4,0 z"
     style="color:#000000;fill:#d1d4d6;fill-opacity:0.74329164;fill-rule:nonzero;stroke:none;stroke-width:2;marker:none;visibility:visible;display:inline;overflow:visible;enable-background:accumulate"
     inkscape:connector-curvature="0"
     sodipodi:nodetypes="cccccccccc" />
  <path
     style="fill:#434a54;fill-opacity:0.6745098;fill-rule:nonzero;stroke:none"
     d="m 2,4.0000024 0,2.0000002 4,0 0,-2.0000002 z"
     id="path3019"
     inkscape:connector-curvature="0" />
  <path
     inkscape:connector-curvature="0"
     id="path3007"
     d="m 2,10.000002 0,2.000001 4,0 0,-2.000001 z"
     style="fill:#434a54;fill-opacity:0.6745098;fill-rule:nonzero;stroke:none" />
  <path
     style="fill:#434a54;fill-opacity:0.6745098;fill-rule:nonzero;stroke:none"
     d="m 2,16.000002 0,2.000001 4,0 0,-2.000001 z"
     id="path3004"
     inkscape:connector-curvature="0" />
  <path
     style="fill:#434a54;fill-opacity:0.6745098;fill-rule:nonzero;stroke:none"
     d="m 9,4.0000024 0,2.0000002 4,0 0,-2.0000002 z"
     id="path3021"
     inkscape:connector-curvature="0" />
  <path
     inkscape:connector-curvature="0"
     id="path3009"
     d="m 9,10.000002 0,2.000001 4,0 0,-2.000001 z"
     style="fill:#434a54;fill-opacity:0.6745098;fill-rule:nonzero;stroke:none" />
  <path
     style="fill:#434a54;fill-opacity:0.6745098;fill-rule:nonzero;stroke:none"
     d="m 9,16.000002 0,2.000001 4,0 0,-2.000001 z"
     id="path3002"
     inkscape:connector-curvature="0" />
  <path
     style="fill:#434a54;fill-opacity:0.6745098;fill-rule:nonzero;stroke:none"
     d="m 16,4.0000024 0,2.0000002 4,0 0,-2.0000002 z"
     id="path3023"
     inkscape:connector-curvature="0" />
  <path
     inkscape:connector-curvature="0"
     id="path3011"
     d="m 16,10.000002 0,2.000001 4,0 0,-2.000001 z"
     style="fill:#434a54;fill-opacity:0.6745098;fill-rule:nonzero;stroke:none" />
</svg>
