<?xml version="1.0" encoding="UTF-8" standalone="no"?>
<!-- Created with Inkscape (http://www.inkscape.org/) -->

<svg
   xmlns:dc="http://purl.org/dc/elements/1.1/"
   xmlns:cc="http://creativecommons.org/ns#"
   xmlns:rdf="http://www.w3.org/1999/02/22-rdf-syntax-ns#"
   xmlns:svg="http://www.w3.org/2000/svg"
   xmlns="http://www.w3.org/2000/svg"
   xmlns:sodipodi="http://sodipodi.sourceforge.net/DTD/sodipodi-0.dtd"
   xmlns:inkscape="http://www.inkscape.org/namespaces/inkscape"
   width="12"
   height="12"
   id="svg27665"
   version="1.1"
   inkscape:version="0.48.3.1 r9886"
   sodipodi:docname="kt-encrypted.svg">
  <defs
     id="defs27667" />
  <sodipodi:namedview
     id="base"
     pagecolor="#ffffff"
     bordercolor="#666666"
     borderopacity="1.0"
     inkscape:pageopacity="0.0"
     inkscape:pageshadow="2"
     inkscape:zoom="45.254834"
     inkscape:cx="9.0260723"
     inkscape:cy="5.2590328"
     inkscape:document-units="px"
     inkscape:current-layer="layer1"
     showgrid="true"
     inkscape:window-width="1920"
     inkscape:window-height="1033"
     inkscape:window-x="-10"
     inkscape:window-y="25"
     inkscape:window-maximized="1"
     inkscape:snap-bbox="true"
     inkscape:bbox-paths="true"
     inkscape:bbox-nodes="true"
     inkscape:snap-bbox-edge-midpoints="true"
     inkscape:snap-bbox-midpoints="true"
     inkscape:object-paths="true"
     inkscape:snap-intersection-paths="true"
     inkscape:object-nodes="true"
     inkscape:snap-smooth-nodes="true"
     inkscape:snap-midpoints="true"
     inkscape:snap-object-midpoints="true"
     inkscape:snap-center="true"
     inkscape:snap-global="true"
     showguides="false"
     inkscape:guide-bbox="true"
     fit-margin-top="0"
     fit-margin-left="0"
     fit-margin-right="0"
     fit-margin-bottom="0"
     inkscape:showpageshadow="false">
    <sodipodi:guide
       orientation="0,1"
       position="599.99999,299.99993"
       id="guide3572" />
    <sodipodi:guide
       orientation="1,0"
       position="294.41949,12.121716"
       id="guide3574" />
    <sodipodi:guide
       orientation="0,1"
       position="456.04389,599.99992"
       id="guide3576" />
    <sodipodi:guide
       orientation="0,1"
       position="-2.8882813e-06,-8.4406273e-05"
       id="guide3578" />
    <sodipodi:guide
       orientation="1,0"
       position="-2.8882813e-06,157.58366"
       id="guide3580" />
    <sodipodi:guide
       orientation="1,0"
       position="599.99999,121.21821"
       id="guide3582" />
    <sodipodi:guide
       orientation="0,1"
       position="599.99999,-714.34359"
       id="guide5928" />
    <sodipodi:guide
       orientation="0,1"
       position="599.99999,-414.34359"
       id="guide5930" />
    <sodipodi:guide
       orientation="0,1"
       position="599.99999,-1014.3435"
       id="guide5932" />
    <sodipodi:guide
       orientation="0,1"
       position="451.57029,524.99606"
       id="guide5294" />
    <sodipodi:guide
       orientation="0,1"
       position="451.57029,75.013516"
       id="guide5296" />
    <sodipodi:guide
       orientation="0,1"
       position="496.01499,-931.36409"
       id="guide5413" />
    <sodipodi:guide
       orientation="0,1"
       position="457.34859,-489.34389"
       id="guide5415" />
    <inkscape:grid
       type="xygrid"
       id="grid3070"
       empspacing="5"
       visible="true"
       enabled="true"
       snapvisiblegridlinesonly="true"
       originx="4.3243213e-05px"
       originy="-2.6947047e-05px" />
  </sodipodi:namedview>
  <metadata
     id="metadata27670">
    <rdf:RDF>
      <cc:Work
         rdf:about="">
        <dc:format>image/svg+xml</dc:format>
        <dc:type
           rdf:resource="http://purl.org/dc/dcmitype/StillImage" />
        <dc:title />
      </cc:Work>
    </rdf:RDF>
  </metadata>
  <g
     inkscape:label="Camada 1"
     inkscape:groupmode="layer"
     id="layer1"
     transform="translate(3364.4171,-2104.7186)">
    <path
       style="font-size:medium;font-style:normal;font-variant:normal;font-weight:normal;font-stretch:normal;text-indent:0;text-align:start;text-decoration:none;line-height:normal;letter-spacing:normal;word-spacing:normal;text-transform:none;direction:ltr;block-progression:tb;writing-mode:lr-tb;text-anchor:start;baseline-shift:baseline;color:#000000;fill:#dbdde3;fill-opacity:0.78315411999999995;fill-rule:nonzero;stroke:none;stroke-width:2;marker:none;visibility:visible;display:inline;overflow:visible;enable-background:accumulate;font-family:Sans;-inkscape-font-specification:Sans"
       d="M 5.625 0 C 5.3261 0.023 5.09115 0.099 4.96875 0.125 C 4.69725 0.182 4.37965 0.25565 4.03125 0.40625 C 3.85295 0.48325 3.6811 0.55165 3.5 0.65625 C 1.9972 1.52005 1 3.1566 1 5 L 0 5 L 0 6 L 0 11 L 0 12 L 1 12 L 11 12 L 12 12 L 12 11 L 12 6 L 12 5 L 11 5 C 11 4.6304 10.938 4.3054 10.875 4 C 10.817 3.7185 10.74825 3.45895 10.65625 3.21875 C 10.641059 3.1723376 10.6594 3.14434 10.625 3.0625 L 10.59375 3.0625 C 10.48055 2.7947 10.3668 2.49015 10.1875 2.21875 C 10.172551 2.1961474 10.169405 2.2072122 10.15625 2.1875 C 10.14125 2.1655 10.06725 2.09845 9.96875 1.96875 C 9.84945 1.81155 9.74 1.6151 9.5625 1.4375 C 9.3704 1.2454 9.2035 1.15625 9.125 1.09375 C 9.036 1.02275 8.933 0.9569 8.8125 0.875 L 8.8125 0.84375 C 8.6972 0.76575 8.6351 0.756 8.625 0.75 C 8.4264 0.6276 8.21015 0.51005 7.96875 0.40625 C 7.62465 0.25815 7.30575 0.1831 7.03125 0.125 C 6.87705 0.092 6.63875 0.0208 6.34375 0 C 6.15065 -0.014 6.0415 0.0002 6 0 C 5.938 -0.0003 5.8274 -0.016 5.625 0 z M 5.6875 1 C 5.7895 0.99 5.8946 0.9995 6 1 C 6.0949 1.0005 6.19025 0.99 6.28125 1 C 6.46405 1.013 6.6338 1.05575 6.8125 1.09375 C 7.0704 1.14835 7.3197 1.208 7.5625 1.3125 C 7.7413 1.3895 7.92695 1.49085 8.09375 1.59375 C 8.14485 1.62575 8.2 1.6545 8.25 1.6875 C 8.3348 1.7451 8.419 1.811 8.5 1.875 C 8.6176 1.9688 8.73755 2.04995 8.84375 2.15625 C 8.97105 2.28355 9.0765 2.4163 9.1875 2.5625 C 9.2335 2.623 9.2695 2.687 9.3125 2.75 C 9.3205 2.761 9.33375 2.76925 9.34375 2.78125 C 9.47775 2.98395 9.5915 3.2112 9.6875 3.4375 C 9.7035 3.4755 9.70375 3.5235 9.71875 3.5625 C 9.79655 3.7656 9.86225 3.9746 9.90625 4.1875 C 9.96125 4.4544 10 4.7251 10 5 L 8 5 C 8 4.8448 7.9755 4.68095 7.9375 4.53125 C 7.9375 4.51225 7.9475 4.48775 7.9375 4.46875 C 7.8891 4.30055 7.80675 4.152 7.71875 4 C 7.65685 3.8927 7.577 3.7785 7.5 3.6875 C 7.49 3.6765 7.47875 3.66725 7.46875 3.65625 C 7.29325 3.45805 7.1043 3.32955 6.875 3.21875 C 6.7603 3.16325 6.6228 3.0945 6.5 3.0625 C 6.468 3.0545 6.43825 3.04125 6.40625 3.03125 C 6.27615 3.00025 6.1381 3 6 3 C 5.9144 3 5.836 3.02025 5.75 3.03125 C 5.6217 3.04825 5.5007 3.083 5.375 3.125 C 5.2493 3.1674 5.1196 3.21225 5 3.28125 C 4.4031 3.62725 4 4.2604 4 5 L 2 5 C 2 3.5155 2.7992 2.22145 4 1.53125 C 4.1435 1.44835 4.29 1.3765 4.4375 1.3125 C 4.6847 1.2057 4.9316 1.14775 5.1875 1.09375 C 5.3513 1.05875 5.5211 1.013 5.6875 1 z M 6 4 L 6.1875 4 C 6.1875 4.0006 6.21675 3.9995 6.21875 4 C 6.226217 4.004557 6.2161 4.02195 6.25 4.03125 C 6.214 4.02125 6.314 4.065 6.4375 4.125 C 6.5878 4.198 6.63685 4.22 6.71875 4.3125 L 6.71875 4.34375 C 6.75875 4.38725 6.775125 4.4075 6.78125 4.40625 C 6.8010024 4.4393351 6.8252206 4.4675735 6.84375 4.5 C 6.91775 4.6284 6.95685 4.68495 6.96875 4.71875 C 6.96875 4.71875 6.96795 4.747 6.96875 4.75 L 6.96875 4.78125 C 6.98875 4.86025 7 4.9492 7 5 L 5 5 C 5 4.6237 5.192 4.33475 5.5 4.15625 C 5.511 4.14625 5.567 4.1035 5.6875 4.0625 C 5.7855 4.0295 5.8433 4.03525 5.875 4.03125 C 6.0369 4.01025 6.0723 4 6 4 z M 1 6 L 11 6 L 11 11 L 1 11 L 1 6 z "
       transform="translate(-3364.4171,2104.7186)"
       id="path3802" />
    <path
       inkscape:connector-curvature="0"
       style="color:#000000;fill:#434a55;fill-opacity:0.6745098;fill-rule:nonzero;stroke:none;stroke-width:4;marker:none;visibility:visible;display:inline;overflow:visible;enable-background:accumulate"
       d="m -3358.7296,2105.7186 c -0.1664,0.013 -0.3362,0.059 -0.5,0.094 -0.2559,0.054 -0.5028,0.1119 -0.75,0.2187 -0.1475,0.064 -0.294,0.1359 -0.4375,0.2188 -1.2008,0.6902 -2,1.9842 -2,3.4687 l 2,0 c 0,-0.7396 0.4031,-1.3727 1,-1.7187 0.1196,-0.069 0.2493,-0.1139 0.375,-0.1563 0.1257,-0.042 0.2467,-0.077 0.375,-0.094 0.086,-0.011 0.1644,-0.031 0.25,-0.031 0.1381,0 0.2761,0 0.4062,0.031 0.032,0.01 0.062,0.023 0.094,0.031 0.1228,0.032 0.2603,0.1008 0.375,0.1563 0.2293,0.1108 0.4182,0.2393 0.5937,0.4375 0.01,0.011 0.021,0.02 0.031,0.031 0.077,0.091 0.1568,0.2052 0.2187,0.3125 0.088,0.152 0.1704,0.3006 0.2188,0.4688 0.01,0.019 0,0.043 0,0.062 0.038,0.1497 0.062,0.3135 0.062,0.4687 l 2,0 c 0,-0.2749 -0.039,-0.5456 -0.094,-0.8125 -0.044,-0.2129 -0.1097,-0.4219 -0.1875,-0.625 -0.015,-0.039 -0.015,-0.087 -0.031,-0.125 -0.096,-0.2263 -0.2098,-0.4535 -0.3438,-0.6562 -0.01,-0.012 -0.023,-0.02 -0.031,-0.031 -0.043,-0.063 -0.079,-0.127 -0.125,-0.1875 -0.111,-0.1462 -0.2165,-0.2789 -0.3438,-0.4062 -0.1062,-0.1063 -0.2261,-0.1875 -0.3437,-0.2813 -0.081,-0.064 -0.1652,-0.1299 -0.25,-0.1875 -0.05,-0.033 -0.1052,-0.062 -0.1563,-0.094 -0.1668,-0.1029 -0.3524,-0.2043 -0.5312,-0.2813 -0.2428,-0.1045 -0.4921,-0.1641 -0.75,-0.2187 -0.1787,-0.038 -0.3485,-0.081 -0.5313,-0.094 -0.091,-0.01 -0.1863,5e-4 -0.2812,0 -0.1054,-5e-4 -0.2105,-0.01 -0.3125,0 z m -4.6875,5 0,5 10,0 0,-5 -10,0 z"
       id="path3788" />
  </g>
</svg>
