<?xml version="1.0" encoding="UTF-8" standalone="no"?>
<!-- Created with Inkscape (http://www.inkscape.org/) -->

<svg
   xmlns:dc="http://purl.org/dc/elements/1.1/"
   xmlns:cc="http://creativecommons.org/ns#"
   xmlns:rdf="http://www.w3.org/1999/02/22-rdf-syntax-ns#"
   xmlns:svg="http://www.w3.org/2000/svg"
   xmlns="http://www.w3.org/2000/svg"
   xmlns:sodipodi="http://sodipodi.sourceforge.net/DTD/sodipodi-0.dtd"
   xmlns:inkscape="http://www.inkscape.org/namespaces/inkscape"
   width="16"
   height="16"
   id="svg13094"
   version="1.1"
   inkscape:version="0.48.3.1 r9886"
   sodipodi:docname="layer-visible-off.svg">
  <sodipodi:namedview
     id="base"
     pagecolor="#ffffff"
     bordercolor="#666666"
     borderopacity="1.0"
     inkscape:pageopacity="0.0"
     inkscape:pageshadow="2"
     inkscape:zoom="45.254834"
     inkscape:cx="8.1061768"
     inkscape:cy="8.2987621"
     inkscape:document-units="px"
     inkscape:current-layer="layer1"
     showgrid="true"
     inkscape:snap-bbox="true"
     inkscape:bbox-paths="true"
     inkscape:bbox-nodes="true"
     inkscape:snap-bbox-edge-midpoints="true"
     inkscape:snap-bbox-midpoints="true"
     inkscape:object-paths="true"
     inkscape:snap-intersection-paths="true"
     inkscape:object-nodes="true"
     inkscape:snap-smooth-nodes="true"
     inkscape:snap-midpoints="true"
     inkscape:snap-object-midpoints="true"
     inkscape:snap-center="true"
     showguides="false"
     inkscape:guide-bbox="true"
     inkscape:window-width="1920"
     inkscape:window-height="1032"
     inkscape:window-x="-7"
     inkscape:window-y="25"
     inkscape:window-maximized="1"
     inkscape:snap-global="true"
     fit-margin-top="0"
     fit-margin-left="0"
     fit-margin-right="0"
     fit-margin-bottom="0"
     showborder="true"
     inkscape:showpageshadow="false">
    <sodipodi:guide
       orientation="0,1"
       position="-20.000165,933.61275"
       id="guide4700" />
    <sodipodi:guide
       orientation="0,1"
       position="581.7187,331.89377"
       id="guide4702" />
    <sodipodi:guide
       orientation="1,0"
       position="581.71882,492.70384"
       id="guide4706" />
    <sodipodi:guide
       orientation="1,0"
       position="59.999836,933.61275"
       id="guide4708" />
    <sodipodi:guide
       orientation="0,1"
       position="-20.000165,853.61285"
       id="guide4710" />
    <sodipodi:guide
       orientation="0,1"
       position="541.7187,411.89369"
       id="guide4712" />
    <sodipodi:guide
       orientation="1,0"
       position="501.7187,411.89369"
       id="guide4714" />
    <inkscape:grid
       type="xygrid"
       id="grid3216"
       empspacing="5"
       visible="true"
       enabled="true"
       snapvisiblegridlinesonly="true"
       originx="-20.000111px"
       originy="-216.00016px" />
    <sodipodi:guide
       orientation="-0.70710664,0.70710692"
       position="8.9998902,-243.00016"
       id="guide3847" />
    <sodipodi:guide
       orientation="0.70710594,0.70710762"
       position="9.9998902,-242.00016"
       id="guide3849" />
    <sodipodi:guide
       orientation="-0.70710681,0.70710676"
       position="11.99989,-209.00016"
       id="guide3851" />
  </sodipodi:namedview>
  <defs
     id="defs13096" />
  <metadata
     id="metadata13099">
    <rdf:RDF>
      <cc:Work
         rdf:about="">
        <dc:format>image/svg+xml</dc:format>
        <dc:type
           rdf:resource="http://purl.org/dc/dcmitype/StillImage" />
        <dc:title />
      </cc:Work>
    </rdf:RDF>
  </metadata>
  <g
     transform="translate(9384.3076,-4846.1987)"
     id="layer1"
     inkscape:groupmode="layer"
     inkscape:label="Camada 1"
     style="display:inline">
    <path
       style="color:#000000;fill:#8a929e;fill-opacity:0.60931899;fill-rule:nonzero;stroke:none;stroke-width:1;marker:none;visibility:visible;display:inline;overflow:visible;enable-background:accumulate"
       d="m -9376.3076,4848.1987 c -3.5049,0 -6.3414,2.6484 -8,6 3.9999,2.0002 5.9999,2.0002 7.9999,2.0002 2,0 4,0 8.0001,-2.0002 -1.6586,-3.3516 -4.4951,-6 -8,-6 z"
       id="path2998"
       inkscape:connector-curvature="0"
       sodipodi:nodetypes="sczcs" />
    <path
       style="fill:#434a55;fill-opacity:0.6745098;stroke:none"
       d="m -9368.3076,4854.1987 c -1.6083,1.8764 -5.3538,3.0002 -8.0001,3.0002 -2.6463,0 -6.3916,-1.1238 -7.9999,-3.0002 1.6586,3.3515 4.4951,6 8,6 3.5049,0 6.3414,-2.6485 8,-6 z"
       id="path3000"
       inkscape:connector-curvature="0"
       sodipodi:nodetypes="cscsc" />
    <path
       style="font-size:medium;font-style:normal;font-variant:normal;font-weight:normal;font-stretch:normal;text-indent:0;text-align:start;text-decoration:none;line-height:normal;letter-spacing:normal;word-spacing:normal;text-transform:none;direction:ltr;block-progression:tb;writing-mode:lr-tb;text-anchor:start;baseline-shift:baseline;color:#000000;fill:#d1d4d6;fill-opacity:0.74329164000000003;fill-rule:nonzero;stroke:none;stroke-width:2;marker:none;visibility:visible;display:inline;overflow:visible;enable-background:accumulate;font-family:Sans;-inkscape-font-specification:Sans"
       d="m 8,0.78125 c -4.1221417,0 -7.33317824,3.0668396 -9.125,6.6875 l -0.4375,0.875 c -7.145e-4,0.0104 -7.145e-4,0.02085 0,0.03125 -0.00286,0.020702 -0.00286,0.041798 0,0.0625 -7.145e-4,0.0104 -7.145e-4,0.02085 0,0.03125 -7.145e-4,0.0104 -7.145e-4,0.02085 0,0.03125 0.00713,0.022271 0.01771,0.043434 0.03125,0.0625 0.00937,0.011395 0.019855,0.021877 0.03125,0.03125 0.00937,0.011395 0.019855,0.021877 0.03125,0.03125 0.0104,7.145e-4 0.02085,7.145e-4 0.03125,0 l 0.59375,0.3125 C 0.9805237,12.365115 4.0411168,15.21875 8,15.21875 c 3.958883,0 7.019476,-2.853635 8.84375,-6.28125 L 17.4375,8.625 c 0.05603,-0.022852 0.102148,-0.068969 0.125,-0.125 7.14e-4,-0.0104 7.14e-4,-0.02085 0,-0.03125 7.14e-4,-0.0104 7.14e-4,-0.02085 0,-0.03125 0.0029,-0.020702 0.0029,-0.041798 0,-0.0625 7.14e-4,-0.0104 7.14e-4,-0.02085 0,-0.03125 L 17.125,7.46875 C 15.333276,3.8480822 12.122142,0.78125 8,0.78125 z M 8,2 c 3.5049,0 6.3414,2.6484 8,6 -1.6586,3.3515 -4.4951,6 -8,6 C 4.4951,14 1.6586,11.3515 0,8 1.6586,4.6484 4.4951,2 8,2 z"
       transform="translate(-9384.3076,4846.1987)"
       id="path2996"
       inkscape:connector-curvature="0"
       sodipodi:nodetypes="scccccccccccsccccccccsscscs" />
  </g>
</svg>
