<?xml version="1.0" encoding="UTF-8" standalone="no"?>
<!-- Created with Inkscape (http://www.inkscape.org/) -->

<svg
   xmlns:dc="http://purl.org/dc/elements/1.1/"
   xmlns:cc="http://creativecommons.org/ns#"
   xmlns:rdf="http://www.w3.org/1999/02/22-rdf-syntax-ns#"
   xmlns:svg="http://www.w3.org/2000/svg"
   xmlns="http://www.w3.org/2000/svg"
   xmlns:sodipodi="http://sodipodi.sourceforge.net/DTD/sodipodi-0.dtd"
   xmlns:inkscape="http://www.inkscape.org/namespaces/inkscape"
   width="16"
   height="16"
   id="svg13094"
   version="1.1"
   inkscape:version="0.48.3.1 r9886"
   sodipodi:docname="layer-visible-on.svg">
  <sodipodi:namedview
     id="base"
     pagecolor="#ffffff"
     bordercolor="#666666"
     borderopacity="1.0"
     inkscape:pageopacity="0.0"
     inkscape:pageshadow="2"
     inkscape:zoom="45.254834"
     inkscape:cx="11.722551"
     inkscape:cy="7.7524045"
     inkscape:document-units="px"
     inkscape:current-layer="layer1"
     showgrid="true"
     inkscape:snap-bbox="true"
     inkscape:bbox-paths="true"
     inkscape:bbox-nodes="true"
     inkscape:snap-bbox-edge-midpoints="true"
     inkscape:snap-bbox-midpoints="true"
     inkscape:object-paths="true"
     inkscape:snap-intersection-paths="true"
     inkscape:object-nodes="true"
     inkscape:snap-smooth-nodes="true"
     inkscape:snap-midpoints="true"
     inkscape:snap-object-midpoints="true"
     inkscape:snap-center="true"
     showguides="false"
     inkscape:guide-bbox="true"
     inkscape:window-width="1920"
     inkscape:window-height="1032"
     inkscape:window-x="-7"
     inkscape:window-y="25"
     inkscape:window-maximized="1"
     inkscape:snap-global="true"
     fit-margin-top="0"
     fit-margin-left="0"
     fit-margin-right="0"
     fit-margin-bottom="0"
     showborder="true"
     inkscape:showpageshadow="false">
    <sodipodi:guide
       orientation="0,1"
       position="-20.000165,933.61275"
       id="guide4700" />
    <sodipodi:guide
       orientation="0,1"
       position="581.7187,331.89377"
       id="guide4702" />
    <sodipodi:guide
       orientation="1,0"
       position="581.71882,492.70384"
       id="guide4706" />
    <sodipodi:guide
       orientation="1,0"
       position="59.999836,933.61275"
       id="guide4708" />
    <sodipodi:guide
       orientation="0,1"
       position="-20.000165,853.61285"
       id="guide4710" />
    <sodipodi:guide
       orientation="0,1"
       position="541.7187,411.89369"
       id="guide4712" />
    <sodipodi:guide
       orientation="1,0"
       position="501.7187,411.89369"
       id="guide4714" />
    <inkscape:grid
       type="xygrid"
       id="grid3216"
       empspacing="5"
       visible="true"
       enabled="true"
       snapvisiblegridlinesonly="true"
       originx="-20.000111px"
       originy="-216.00016px" />
    <sodipodi:guide
       orientation="-0.70710664,0.70710692"
       position="8.9998902,-243.00016"
       id="guide3847" />
    <sodipodi:guide
       orientation="0.70710594,0.70710762"
       position="9.9998902,-242.00016"
       id="guide3849" />
    <sodipodi:guide
       orientation="-0.70710681,0.70710676"
       position="11.99989,-209.00016"
       id="guide3851" />
  </sodipodi:namedview>
  <defs
     id="defs13096" />
  <metadata
     id="metadata13099">
    <rdf:RDF>
      <cc:Work
         rdf:about="">
        <dc:format>image/svg+xml</dc:format>
        <dc:type
           rdf:resource="http://purl.org/dc/dcmitype/StillImage" />
        <dc:title />
      </cc:Work>
    </rdf:RDF>
  </metadata>
  <g
     transform="translate(9384.3076,-4846.1987)"
     id="layer1"
     inkscape:groupmode="layer"
     inkscape:label="Camada 1">
    <path
       inkscape:connector-curvature="0"
       style="fill:#434a55;fill-opacity:0.6745098;stroke:none"
       d="m -9376.3076,4848.1987 c -3.5049,0 -6.3414,2.6484 -8,6 l 2,0 c 0.7061,-0.8238 1.4576,-1.6878 2.2812,-2.4063 -0.1651,0.4385 -0.2812,0.9101 -0.2812,1.4063 0,2.2092 1.7908,4 4,4 2.2092,0 4,-1.7908 4,-4 0,-0.4962 -0.1161,-0.9678 -0.2813,-1.4063 0.8238,0.7185 1.5752,1.5825 2.2813,2.4063 l 2,0 c -1.6586,-3.3516 -4.4951,-6 -8,-6 z m 8,6 c -1.6083,1.8764 -5.3537,4 -8,4 -2.6463,0 -6.3917,-2.1236 -8,-4 1.6586,3.3515 4.4951,6 8,6 3.5049,0 6.3414,-2.6485 8,-6 z m -8,-2 c 0.5523,0 1,0.4477 1,1 0,0.5523 -0.4477,1 -1,1 -0.5523,0 -1,-0.4477 -1,-1 0,-0.5523 0.4477,-1 1,-1 z"
       id="path2997" />
    <path
       style="font-size:medium;font-style:normal;font-variant:normal;font-weight:normal;font-stretch:normal;text-indent:0;text-align:start;text-decoration:none;line-height:normal;letter-spacing:normal;word-spacing:normal;text-transform:none;direction:ltr;block-progression:tb;writing-mode:lr-tb;text-anchor:start;baseline-shift:baseline;color:#000000;fill:#d1d4d6;fill-opacity:0.74329164000000003;fill-rule:nonzero;stroke:none;stroke-width:2;marker:none;visibility:visible;display:inline;overflow:visible;enable-background:accumulate;font-family:Sans;-inkscape-font-specification:Sans"
       d="m 8,0.8125 c -4.1025418,0 -7.27500137,3.0443251 -9.0625,6.65625 l -0.71875,1.4375 c -0.011592,0.00915 -0.022105,0.019658 -0.03125,0.03125 -8.64e-4,0.010393 -8.64e-4,0.020857 0,0.03125 -8.64e-4,0.010393 -8.64e-4,0.020857 0,0.03125 -8.64e-4,0.010393 -8.64e-4,0.020857 0,0.03125 -8.64e-4,0.010393 -8.64e-4,0.020857 0,0.03125 0.00915,0.011592 0.019658,0.022105 0.03125,0.03125 0.00915,0.011592 0.019658,0.022105 0.03125,0.03125 0.00915,0.011592 0.019658,0.022105 0.03125,0.03125 0.018651,0.014178 0.039967,0.024836 0.0625,0.03125 0.010393,8.64e-4 0.020857,8.64e-4 0.03125,0 l 0.96875,0 c 1.8351658,3.298927 4.8175648,6 8.65625,6 3.838685,0 6.821084,-2.701073 8.65625,-6 l 0.96875,0 c 0.01039,8.64e-4 0.02086,8.64e-4 0.03125,0 0.01039,8.64e-4 0.02086,8.64e-4 0.03125,0 0.01159,-0.00915 0.0221,-0.019658 0.03125,-0.03125 0.01159,-0.00915 0.0221,-0.019658 0.03125,-0.03125 0.01159,-0.00915 0.0221,-0.019658 0.03125,-0.03125 0.01159,-0.00915 0.0221,-0.019658 0.03125,-0.03125 8.64e-4,-0.010393 8.64e-4,-0.020857 0,-0.03125 8.64e-4,-0.010393 8.64e-4,-0.020857 0,-0.03125 8.64e-4,-0.010393 8.64e-4,-0.020857 0,-0.03125 8.64e-4,-0.010393 8.64e-4,-0.020857 0,-0.03125 -0.0091,-0.011592 -0.01966,-0.022105 -0.03125,-0.03125 L 17.0625,7.46875 C 15.2751,3.8568191 12.102542,0.8125 8,0.8125 z M 8,2 c 3.5049,0 6.3414,2.6484 8,6 -1.6586,3.3515 -4.4951,6 -8,6 C 4.4951,14 1.6586,11.3515 0,8 1.6586,4.6484 4.4951,2 8,2 z M 0,8 c 1.6083,1.8764 5.3537,4 8,4 2.6463,0 6.3917,-2.1236 8,-4 L 14,8 C 13.2939,7.1762 12.54255,6.31225 11.71875,5.59375 11.88395,6.03225 12,6.5038 12,7 12,9.2092 10.2092,11 8,11 5.7908,11 4,9.2092 4,7 4,6.5038 4.11615,6.03225 4.28125,5.59375 3.45765,6.31225 2.7061,7.1762 2,8 z M 8,6 C 7.4477,6 7,6.4477 7,7 7,7.5523 7.4477,8 8,8 8.5523,8 9,7.5523 9,7 9,6.4477 8.5523,6 8,6 z"
       transform="translate(-9384.3076,4846.1987)"
       id="path2995"
       inkscape:connector-curvature="0"
       sodipodi:nodetypes="scccccccccccccsccccccccccccccsscscscscccssscccsssss" />
  </g>
</svg>
