<?xml version="1.0" encoding="UTF-8" standalone="no"?>
<!-- Created with Inkscape (http://www.inkscape.org/) -->

<svg
   xmlns:dc="http://purl.org/dc/elements/1.1/"
   xmlns:cc="http://creativecommons.org/ns#"
   xmlns:rdf="http://www.w3.org/1999/02/22-rdf-syntax-ns#"
   xmlns:svg="http://www.w3.org/2000/svg"
   xmlns="http://www.w3.org/2000/svg"
   xmlns:xlink="http://www.w3.org/1999/xlink"
   xmlns:sodipodi="http://sodipodi.sourceforge.net/DTD/sodipodi-0.dtd"
   xmlns:inkscape="http://www.inkscape.org/namespaces/inkscape"
   width="15.999998"
   height="15.999998"
   id="svg13094"
   version="1.1"
   inkscape:version="0.48.3.1 r9886"
   sodipodi:docname="stock_refresh.svg">
  <sodipodi:namedview
     id="base"
     pagecolor="#ffffff"
     bordercolor="#666666"
     borderopacity="1.0"
     inkscape:pageopacity="0.0"
     inkscape:pageshadow="2"
     inkscape:zoom="45.254837"
     inkscape:cx="8.2248533"
     inkscape:cy="7.4515677"
     inkscape:document-units="px"
     inkscape:current-layer="layer1"
     showgrid="true"
     inkscape:snap-bbox="true"
     inkscape:bbox-paths="true"
     inkscape:bbox-nodes="true"
     inkscape:snap-bbox-edge-midpoints="true"
     inkscape:snap-bbox-midpoints="true"
     inkscape:object-paths="true"
     inkscape:snap-intersection-paths="true"
     inkscape:object-nodes="true"
     inkscape:snap-smooth-nodes="true"
     inkscape:snap-midpoints="true"
     inkscape:snap-object-midpoints="true"
     inkscape:snap-center="true"
     showguides="true"
     inkscape:guide-bbox="true"
     inkscape:window-width="1920"
     inkscape:window-height="1032"
     inkscape:window-x="-7"
     inkscape:window-y="25"
     inkscape:window-maximized="1"
     inkscape:snap-global="true"
     fit-margin-top="0"
     fit-margin-left="0"
     fit-margin-right="0"
     fit-margin-bottom="0"
     showborder="true"
     inkscape:showpageshadow="false">
    <inkscape:grid
       type="xygrid"
       id="grid3183"
       empspacing="5"
       visible="true"
       enabled="true"
       snapvisiblegridlinesonly="true"
       originx="9.5192791e-05px"
       originy="10.999988px" />
  </sodipodi:namedview>
  <defs
     id="defs13096">
    <linearGradient
       id="linearGradient7209-1">
      <stop
         id="stop7211-8"
         offset="0"
         style="stop-color:#6e6e6e;stop-opacity:0.61170512;" />
      <stop
         id="stop7213-9"
         offset="1"
         style="stop-color:#000000;stop-opacity:0.65503657;" />
    </linearGradient>
    <linearGradient
       id="linearGradient9097">
      <stop
         style="stop-color:#ffffff;stop-opacity:0.61564434;"
         offset="0"
         id="stop9099" />
      <stop
         style="stop-color:#ffffff;stop-opacity:1;"
         offset="1"
         id="stop9101" />
    </linearGradient>
    <linearGradient
       id="linearGradient7251">
      <stop
         style="stop-color:#000000;stop-opacity:0.39561057;"
         offset="0"
         id="stop7253" />
      <stop
         style="stop-color:#000000;stop-opacity:0.2824986;"
         offset="1"
         id="stop7255" />
    </linearGradient>
    <linearGradient
       inkscape:collect="always"
       xlink:href="#linearGradient7209-1"
       id="linearGradient3091"
       gradientUnits="userSpaceOnUse"
       x1="-3195.6418"
       y1="493.84024"
       x2="-3195.6418"
       y2="36.123241" />
    <linearGradient
       inkscape:collect="always"
       xlink:href="#linearGradient9097"
       id="linearGradient3093"
       gradientUnits="userSpaceOnUse"
       gradientTransform="translate(19.900645,19.900678)"
       x1="-3195.6418"
       y1="493.84024"
       x2="-3195.6418"
       y2="36.123241" />
    <linearGradient
       inkscape:collect="always"
       xlink:href="#linearGradient7251"
       id="linearGradient3095"
       gradientUnits="userSpaceOnUse"
       x1="-3673.2571"
       y1="513.74091"
       x2="-3673.2571"
       y2="36.124592" />
  </defs>
  <metadata
     id="metadata13099">
    <rdf:RDF>
      <cc:Work
         rdf:about="">
        <dc:format>image/svg+xml</dc:format>
        <dc:type
           rdf:resource="http://purl.org/dc/dcmitype/StillImage" />
        <dc:title />
      </cc:Work>
    </rdf:RDF>
  </metadata>
  <g
     transform="translate(9398.6161,-4997.8786)"
     id="layer1"
     inkscape:groupmode="layer"
     inkscape:label="Camada 1">
    <g
       transform="matrix(0.02512477,0,0,0.02512477,-9310.3262,5038.971)"
       id="16">
      <rect
         y="-43.478539"
         x="-3514.0554"
         height="636.82166"
         width="636.82166"
         id="rect3044"
         style="opacity:0.00100002;fill:#ffffff;fill-opacity:1;fill-rule:nonzero;stroke:none" />
      <g
         transform="matrix(0.02512477,0,0,0.02512477,-9310.3255,4998.9715)"
         id="use3046">
        <path
           inkscape:connector-curvature="0"
           style="font-size:medium;font-style:normal;font-variant:normal;font-weight:normal;font-stretch:normal;text-indent:0;text-align:start;text-decoration:none;line-height:normal;letter-spacing:normal;word-spacing:normal;text-transform:none;direction:ltr;block-progression:tb;writing-mode:lr-tb;text-anchor:start;baseline-shift:baseline;color:#000000;fill:url(#linearGradient3091);fill-opacity:1;stroke:none;stroke-width:2;marker:none;visibility:visible;display:inline;overflow:visible;enable-background:accumulate;font-family:Sans;-inkscape-font-specification:Sans"
           d="m -3394.65,36.123713 159.2054,159.205437 0,-79.60272 39.8014,0 c 88.3982,0 159.2054,70.80727 159.2054,159.20544 0,37.07142 -12.6016,71.30055 -33.5824,98.2596 l 55.9707,55.97066 c 35.4778,-41.69861 57.2144,-95.47839 57.2144,-154.23026 0,-131.41867 -107.3895,-238.808157 -238.8081,-238.808157 l -199.0068,0 z m 17.4131,84.577887 c -35.4778,41.69861 -57.2145,95.4784 -57.2145,154.23027 0,131.41867 107.3896,238.80815 238.8082,238.80815 l 199.0068,0 -159.2055,-159.20544 0,79.60272 -39.8013,0 c -88.3982,0 -159.2055,-70.80725 -159.2055,-159.20543 0,-37.07142 12.6016,-71.30056 33.5824,-98.25961 l -55.9706,-55.97066 z"
           id="path3085" />
        <path
           style="font-size:medium;font-style:normal;font-variant:normal;font-weight:normal;font-stretch:normal;text-indent:0;text-align:start;text-decoration:none;line-height:normal;letter-spacing:normal;word-spacing:normal;text-transform:none;direction:ltr;block-progression:tb;writing-mode:lr-tb;text-anchor:start;baseline-shift:baseline;color:#000000;fill:url(#linearGradient3093);fill-opacity:1;stroke:none;stroke-width:2;marker:none;visibility:visible;display:inline;overflow:visible;enable-background:accumulate;font-family:Sans;-inkscape-font-specification:Sans"
           d="m -3235.4406,115.72643 0,79.60272 19.9007,19.90068 0,-79.60272 39.8013,0 c 38.9948,0 74.4105,14.32475 101.991,37.31377 -29.1253,-34.94249 -72.4882,-57.21445 -121.8916,-57.21445 l -39.8014,0 z m 217.6637,1.24379 c 37.5356,42.21707 60.9458,97.32547 60.9458,157.96165 0,58.75186 -21.7366,112.53165 -57.2144,154.23026 l 19.9006,19.90068 c 35.4778,-41.69861 57.2145,-95.4784 57.2145,-154.23026 0,-70.7825 -31.5653,-134.04589 -80.8465,-177.86233 z m -303.4854,59.70204 c -20.9808,26.95905 -33.5824,61.18818 -33.5824,98.25961 0,49.40343 22.272,92.7663 57.2145,121.89166 -22.9891,-27.58055 -37.3138,-62.99624 -37.3138,-101.99098 0,-37.07143 12.6016,-71.30056 33.5824,-98.25961 l -19.9007,-19.90068 z m -32.3386,276.12193 c 43.8165,49.28129 107.0799,80.84651 177.8623,80.84651 l 199.0068,0 -19.9007,-19.90068 -199.0067,0 c -60.6362,0 -115.7446,-23.41024 -157.9617,-60.94583 z"
           id="path3087"
           inkscape:connector-curvature="0" />
        <path
           style="font-size:medium;font-style:normal;font-variant:normal;font-weight:normal;font-stretch:normal;text-indent:0;text-align:start;text-decoration:none;line-height:normal;letter-spacing:normal;word-spacing:normal;text-transform:none;direction:ltr;block-progression:tb;writing-mode:lr-tb;text-anchor:start;baseline-shift:baseline;color:#000000;fill:url(#linearGradient3095);fill-opacity:1;stroke:none;stroke-width:2;marker:none;visibility:visible;display:inline;overflow:visible;enable-background:accumulate;font-family:Sans;-inkscape-font-specification:Sans"
           d="m -3394.6501,36.123713 19.9007,19.90068 199.0068,0 c 60.6361,0 115.7446,23.41024 157.9616,60.945827 -43.8165,-49.281267 -107.0799,-80.846507 -177.8623,-80.846507 l -199.0068,0 z m 17.4131,84.577887 c -35.4778,41.69861 -57.2145,95.4784 -57.2145,154.23027 0,70.78248 31.5653,134.04588 80.8465,177.86232 -37.5356,-42.21706 -60.9458,-97.32545 -60.9458,-157.96164 0,-58.75187 21.7367,-112.53166 57.2145,-154.23027 l -19.9007,-19.90068 z m 303.4854,52.23928 c 22.989,27.58057 37.3137,62.99623 37.3137,101.99099 0,37.07142 -12.6016,71.30055 -33.5824,98.2596 l 19.9007,19.90068 c 20.9808,-26.95905 33.5824,-61.18818 33.5824,-98.2596 0,-49.40342 -22.272,-92.7663 -57.2144,-121.89167 z m -82.0903,181.59371 0,79.60271 -39.8014,0 c -38.9948,0 -74.4104,-14.32474 -101.991,-37.31377 29.1254,34.94249 72.4882,57.21445 121.8917,57.21445 l 39.8013,0 0,-79.60272 -19.9006,-19.90067 z"
           id="path3089"
           inkscape:connector-curvature="0" />
      </g>
    </g>
    <path
       style="fill:#434a54;fill-opacity:0.6745098;fill-rule:nonzero;stroke:none"
       d="m -9372.7521,4998.8787 c -1.9295,-1e-4 -3.6819,0.7904 -4.9497,2.0501 l -0.4571,0.4571 -1.4571,-1.3713 0,4.2426 4.2427,0 -1.3714,-1.4571 0.4571,-0.4571 c 0.8983,-0.9124 2.1531,-1.4644 3.5355,-1.4644 2.7614,0 5,2.2386 5,5 l 1.9999,0 c 1e-4,-3.866 -3.1339,-7 -6.9999,-6.9999 z m -6.9999,6.9999 c -10e-5,3.866 3.1339,7 6.9999,6.9999 1.9295,1e-4 3.682,-0.7905 4.9498,-2.0502 l 0.4571,-0.4571 1.4571,1.3713 0,-4.2427 -4.2426,0 1.3713,1.4572 -0.4571,0.4571 c -0.8982,0.9123 -2.1532,1.4645 -3.5356,1.4645 -2.7614,0 -5,-2.2386 -5,-5 z"
       id="path3005"
       inkscape:connector-curvature="0"
       sodipodi:nodetypes="scccccccsccscscccccccscc" />
    <path
       id="path3062"
       d="m -9390.6161,4998.8786 c -2.2352,0 -4.2168,1.0595 -5.5,2.6875 l -1.5,-1.6875 0,5 4.5,0 -1.5937,-1.7813 c 0.8961,-1.3238 2.3746,-2.2187 4.0937,-2.2187 2.4162,0 4.44,1.7216 4.9063,4 l 2,0 c -0.4874,-3.39 -3.3815,-6 -6.9063,-6 z m -6.9062,8 c 0.4873,3.39 3.3814,6 6.9062,6 2.2352,0 4.2168,-1.0595 5.5,-2.6875 l 1.5,1.6875 0,-5 -4.5,0 1.5938,1.7812 c -0.8962,1.3239 -2.3747,2.2188 -4.0938,2.2188 -2.4162,0 -4.4399,-1.7216 -4.9062,-4 l -2,0 z"
       style="color:#000000;fill:#434a54;fill-opacity:0.6745098;fill-rule:nonzero;stroke:none;stroke-width:2;marker:none;visibility:visible;display:inline;overflow:visible;enable-background:accumulate"
       inkscape:connector-curvature="0" />
    <path
       inkscape:connector-curvature="0"
       style="color:#000000;fill:#d1d4d6;fill-opacity:0.74329164;fill-rule:nonzero;stroke:none;stroke-width:2;marker:none;visibility:visible;display:inline;overflow:visible;enable-background:accumulate"
       d="m -9390.6159,5010.8784 c 1.7167,0 3.2224,-0.8672 4.125,-2.1875 l -0.8125,-0.9063 c -0.6582,1.1423 -1.8954,1.9063 -3.3125,1.9063 -0.8989,0 -1.7228,-0.2965 -2.375,-0.8125 l -1.625,0 c 0.9144,1.2178 2.3633,2 4,2 z"
       id="path3940"
       sodipodi:nodetypes="sccsccs" />
    <rect
       style="color:#000000;fill:#d1d4d6;fill-opacity:0.74329164;fill-rule:nonzero;stroke:none;stroke-width:2;marker:none;visibility:visible;display:inline;overflow:visible;enable-background:accumulate"
       id="rect3942"
       width="1"
       height="4.9994512"
       x="9382.6162"
       y="-5010.8784"
       transform="scale(-1,-1)" />
    <rect
       style="color:#000000;fill:#d1d4d6;fill-opacity:0.74329164;fill-rule:nonzero;stroke:none;stroke-width:2;marker:none;visibility:visible;display:inline;overflow:visible;enable-background:accumulate"
       id="rect3944"
       width="4.0003433"
       height="1"
       x="9383.6162"
       y="-5006.8784"
       transform="scale(-1,-1)" />
    <path
       inkscape:connector-curvature="0"
       id="path3819"
       d="m -9390.6161,5000.8786 c -1.7167,0 -3.2224,0.8672 -4.125,2.1875 l 0.8125,0.9062 c 0.6582,-1.1422 1.8954,-1.9062 3.3125,-1.9062 0.8989,0 1.7228,0.2965 2.375,0.8125 l 1.625,0 c -0.9144,-1.2178 -2.3633,-2 -4,-2 z"
       style="color:#000000;fill:#d1d4d6;fill-opacity:0.74329164;fill-rule:nonzero;stroke:none;stroke-width:2;marker:none;visibility:visible;display:inline;overflow:visible;enable-background:accumulate"
       sodipodi:nodetypes="sccsccs" />
    <rect
       y="5000.8784"
       x="-9398.6162"
       height="4.9994512"
       width="1"
       id="rect3895"
       style="color:#000000;fill:#d1d4d6;fill-opacity:0.74329164;fill-rule:nonzero;stroke:none;stroke-width:2;marker:none;visibility:visible;display:inline;overflow:visible;enable-background:accumulate" />
    <rect
       y="5004.8784"
       x="-9397.6162"
       height="1"
       width="4.0003433"
       id="rect3897"
       style="color:#000000;fill:#d1d4d6;fill-opacity:0.74329164;fill-rule:nonzero;stroke:none;stroke-width:2;marker:none;visibility:visible;display:inline;overflow:visible;enable-background:accumulate" />
    <path
       style="color:#000000;fill:#d1d4d6;fill-opacity:0.74329164;fill-rule:nonzero;stroke:none;stroke-width:2;marker:none;visibility:visible;display:inline;overflow:visible;enable-background:accumulate"
       d="M 8 -0.25 C 5.4528531 -0.25 3.1696007 0.90463999 1.65625 2.71875 L 2.5 3.6875 C 2.5682198 3.6009702 2.6466034 3.5206627 2.71875 3.4375 C 2.8306119 3.3083927 2.9417142 3.1832447 3.0625 3.0625 C 3.2267211 2.8982789 3.4139396 2.7410735 3.59375 2.59375 C 3.7973128 2.4269655 3.9969949 2.2683402 4.21875 2.125 C 4.3606702 2.0328588 4.5075323 1.9256641 4.65625 1.84375 C 4.7049147 1.8173138 4.7631468 1.806557 4.8125 1.78125 C 4.9652214 1.7017154 5.1222077 1.6308246 5.28125 1.5625 C 5.4906172 1.4739453 5.6870591 1.3806753 5.90625 1.3125 C 6.1609554 1.2316657 6.4210034 1.1763133 6.6875 1.125 C 6.8523507 1.0936713 7.0187727 1.082048 7.1875 1.0625 C 7.4546516 1.0315489 7.7245475 1 8 1 C 8.2203 1 8.4413106 1.0113062 8.65625 1.03125 C 8.6767255 1.0331482 8.698326 1.0291758 8.71875 1.03125 C 8.9554394 1.0553711 9.1773114 1.1090681 9.40625 1.15625 C 9.6268547 1.2017143 9.8501563 1.2467198 10.0625 1.3125 C 10.071991 1.3154075 10.084276 1.3095533 10.09375 1.3125 C 10.230777 1.3555816 10.366804 1.4175676 10.5 1.46875 C 10.544063 1.4856091 10.58137 1.5135311 10.625 1.53125 C 10.655637 1.5437467 10.688334 1.5495809 10.71875 1.5625 C 10.834098 1.6112879 10.95041 1.6640524 11.0625 1.71875 C 11.247324 1.8095337 11.418623 1.8937402 11.59375 2 C 11.700483 2.0641096 11.803316 2.1179594 11.90625 2.1875 C 11.978037 2.2362042 12.055161 2.2924657 12.125 2.34375 C 12.233273 2.423144 12.334087 2.5084057 12.4375 2.59375 C 12.489846 2.6371058 12.542706 2.6739062 12.59375 2.71875 C 12.713387 2.8232072 12.825244 2.9502438 12.9375 3.0625 C 12.968259 3.0934986 13.001072 3.12468 13.03125 3.15625 C 13.156605 3.286316 13.291176 3.4230629 13.40625 3.5625 C 13.678635 3.8956868 13.916761 4.2446138 14.125 4.625 C 14.132102 4.6378782 14.149227 4.6433225 14.15625 4.65625 C 14.247405 4.8251187 14.297595 5.0106306 14.375 5.1875 C 14.462645 5.3858739 14.555755 5.5737141 14.625 5.78125 C 14.68913 5.9734544 14.733746 6.1757819 14.78125 6.375 C 14.830123 6.5799612 14.875847 6.7884868 14.90625 7 L 15 7 L 16.1875 7 C 15.692077 2.9172957 12.216388 -0.25 8 -0.25 z M -0.1875 9 C 0.30792319 13.082704 3.7836118 16.25 8 16.25 C 10.547147 16.25 12.830399 15.09536 14.34375 13.28125 L 13.5 12.3125 C 13.467568 12.353637 13.439578 12.397116 13.40625 12.4375 C 13.368867 12.482856 13.319728 12.51809 13.28125 12.5625 C 13.169388 12.691607 13.058286 12.816755 12.9375 12.9375 C 12.866064 13.008936 12.793206 13.087942 12.71875 13.15625 C 12.620368 13.24645 12.509626 13.321656 12.40625 13.40625 C 12.202687 13.573035 12.003005 13.73166 11.78125 13.875 C 11.593915 13.996626 11.386545 14.115091 11.1875 14.21875 C 11.154877 14.235478 11.126668 14.265021 11.09375 14.28125 C 10.85995 14.398344 10.622806 14.503053 10.375 14.59375 C 10.311978 14.616401 10.251345 14.635371 10.1875 14.65625 C 9.9324144 14.741309 9.673532 14.788434 9.40625 14.84375 C 9.3743521 14.850277 9.3445543 14.868908 9.3125 14.875 C 9.1505224 14.906188 8.978305 14.917801 8.8125 14.9375 C 8.5453484 14.968451 8.2754525 15 8 15 C 7.7581548 15 7.5165837 14.992733 7.28125 14.96875 C 7.1842982 14.958904 7.0957409 14.920012 7 14.90625 C 6.9053209 14.892567 6.8121344 14.892447 6.71875 14.875 C 6.6765577 14.867175 6.6356729 14.852329 6.59375 14.84375 C 6.3731453 14.798286 6.1498437 14.75328 5.9375 14.6875 C 5.928251 14.684635 5.9154823 14.690403 5.90625 14.6875 C 5.8287773 14.663404 5.7637928 14.62044 5.6875 14.59375 C 5.5817306 14.556494 5.4783409 14.510902 5.375 14.46875 C 5.2279137 14.409016 5.0794065 14.350497 4.9375 14.28125 C 4.8430898 14.234877 4.7481853 14.206718 4.65625 14.15625 C 4.5675404 14.10806 4.4925907 14.051861 4.40625 14 C 4.3054451 13.938836 4.1911156 13.878559 4.09375 13.8125 C 4.0502489 13.783111 4.0115474 13.749084 3.96875 13.71875 C 3.8280987 13.618811 3.6951525 13.51612 3.5625 13.40625 C 3.5121876 13.364729 3.4553679 13.324136 3.40625 13.28125 C 3.2859326 13.175547 3.1752821 13.051161 3.0625 12.9375 C 3.0318847 12.906885 2.9987965 12.874926 2.96875 12.84375 C 2.9433716 12.817201 2.9312124 12.776947 2.90625 12.75 C 2.7920161 12.627744 2.6678273 12.505208 2.5625 12.375 C 2.2986126 12.045873 2.0457021 11.717874 1.84375 11.34375 C 1.7534636 11.177548 1.7018707 10.986488 1.625 10.8125 C 1.5373554 10.614126 1.4442452 10.426286 1.375 10.21875 C 1.3108702 10.026546 1.266254 9.8242181 1.21875 9.625 C 1.2013792 9.5519483 1.1713311 9.480166 1.15625 9.40625 C 1.1288356 9.272279 1.1133908 9.13664 1.09375 9 L -0.1875 9 z "
       transform="translate(-9398.6161,4997.8786)"
       id="path3006" />
  </g>
</svg>
