<?xml version="1.0" encoding="UTF-8" standalone="no"?>
<!-- Created with Inkscape (http://www.inkscape.org/) -->

<svg
   xmlns:dc="http://purl.org/dc/elements/1.1/"
   xmlns:cc="http://creativecommons.org/ns#"
   xmlns:rdf="http://www.w3.org/1999/02/22-rdf-syntax-ns#"
   xmlns:svg="http://www.w3.org/2000/svg"
   xmlns="http://www.w3.org/2000/svg"
   xmlns:sodipodi="http://sodipodi.sourceforge.net/DTD/sodipodi-0.dtd"
   xmlns:inkscape="http://www.inkscape.org/namespaces/inkscape"
   width="16.000004"
   height="16.000004"
   id="svg13094"
   version="1.1"
   inkscape:version="0.48.3.1 r9886"
   sodipodi:docname="view-list-icons.svg">
  <sodipodi:namedview
     id="base"
     pagecolor="#ffffff"
     bordercolor="#666666"
     borderopacity="1.0"
     inkscape:pageopacity="0.0"
     inkscape:pageshadow="2"
     inkscape:zoom="45.254835"
     inkscape:cx="8.2647528"
     inkscape:cy="7.8610163"
     inkscape:document-units="px"
     inkscape:current-layer="svg13094"
     showgrid="true"
     inkscape:snap-bbox="true"
     inkscape:bbox-paths="true"
     inkscape:bbox-nodes="true"
     inkscape:snap-bbox-edge-midpoints="true"
     inkscape:snap-bbox-midpoints="true"
     inkscape:object-paths="true"
     inkscape:snap-intersection-paths="true"
     inkscape:object-nodes="true"
     inkscape:snap-smooth-nodes="true"
     inkscape:snap-midpoints="true"
     inkscape:snap-object-midpoints="true"
     inkscape:snap-center="true"
     showguides="true"
     inkscape:guide-bbox="true"
     inkscape:window-width="1920"
     inkscape:window-height="1032"
     inkscape:window-x="-7"
     inkscape:window-y="25"
     inkscape:window-maximized="1"
     inkscape:snap-global="true"
     fit-margin-top="0"
     fit-margin-left="0"
     fit-margin-right="0"
     fit-margin-bottom="0"
     showborder="true"
     inkscape:showpageshadow="false">
    <inkscape:grid
       type="xygrid"
       id="grid3075"
       empspacing="5"
       visible="true"
       enabled="true"
       snapvisiblegridlinesonly="true"
       originx="1.6362304e-08px"
       originy="4.9999976px" />
  </sodipodi:namedview>
  <defs
     id="defs13096" />
  <metadata
     id="metadata13099">
    <rdf:RDF>
      <cc:Work
         rdf:about="">
        <dc:format>image/svg+xml</dc:format>
        <dc:type
           rdf:resource="http://purl.org/dc/dcmitype/StillImage" />
        <dc:title />
      </cc:Work>
    </rdf:RDF>
  </metadata>
  <path
     id="path3002"
     d="M 1,1 1,5 5,5 5,1 1,1 z m 5,0 0,4 4,0 0,-4 -4,0 z m 5,0 0,4 4,0 0,-4 -4,0 z M 1,6 1,10 5,10 5,6 1,6 z m 5,0 0,4 4,0 0,-4 -4,0 z m 5,0 0,4 4,0 0,-4 -4,0 z m -10,5 0,4 4,0 0,-4 -4,0 z m 5,0 0,4 4,0 0,-4 -4,0 z m 5,0 0,4 4,0 0,-4 -4,0 z"
     style="fill:#434a54;fill-opacity:0.6745098;fill-rule:nonzero;stroke:none"
     inkscape:connector-curvature="0" />
  <path
     style="font-size:medium;font-style:normal;font-variant:normal;font-weight:normal;font-stretch:normal;text-indent:0;text-align:start;text-decoration:none;line-height:normal;letter-spacing:normal;word-spacing:normal;text-transform:none;direction:ltr;block-progression:tb;writing-mode:lr-tb;text-anchor:start;baseline-shift:baseline;color:#000000;fill:#d1d4d6;fill-opacity:0.74329164000000003;fill-rule:nonzero;stroke:none;stroke-width:2;marker:none;visibility:visible;display:inline;overflow:visible;enable-background:accumulate;font-family:Sans;-inkscape-font-specification:Sans"
     d="M 0 0 L 0 1 L 0 5 L 0 6 L 0 10 L 0 11 L 0 15 L 0 16 L 1 16 L 5 16 L 6 16 L 10 16 L 11 16 L 15 16 L 16 16 L 16 15 L 16 11 L 16 10 L 16 6 L 16 5 L 16 1 L 16 0 L 15 0 L 11 0 L 10 0 L 6 0 L 5 0 L 1 0 L 0 0 z M 1 1 L 5 1 L 5 5 L 1 5 L 1 1 z M 6 1 L 10 1 L 10 5 L 6 5 L 6 1 z M 11 1 L 15 1 L 15 5 L 11 5 L 11 1 z M 1 6 L 5 6 L 5 10 L 1 10 L 1 6 z M 6 6 L 10 6 L 10 10 L 6 10 L 6 6 z M 11 6 L 15 6 L 15 10 L 11 10 L 11 6 z M 1 11 L 5 11 L 5 15 L 1 15 L 1 11 z M 6 11 L 10 11 L 10 15 L 6 15 L 6 11 z M 11 11 L 15 11 L 15 15 L 11 15 L 11 11 z "
     id="path2999" />
</svg>
