<?xml version="1.0" encoding="UTF-8" standalone="no"?>
<!-- Created with Inkscape (http://www.inkscape.org/) -->
<svg
   xmlns:dc="http://purl.org/dc/elements/1.1/"
   xmlns:cc="http://creativecommons.org/ns#"
   xmlns:rdf="http://www.w3.org/1999/02/22-rdf-syntax-ns#"
   xmlns:svg="http://www.w3.org/2000/svg"
   xmlns="http://www.w3.org/2000/svg"
   xmlns:xlink="http://www.w3.org/1999/xlink"
   xmlns:sodipodi="http://sodipodi.sourceforge.net/DTD/sodipodi-0.dtd"
   xmlns:inkscape="http://www.inkscape.org/namespaces/inkscape"
   width="200"
   height="100"
   id="svg7229"
   sodipodi:version="0.32"
   inkscape:version="0.46"
   version="1.0"
   sodipodi:docname="configuration-icons.svgz"
   inkscape:output_extension="org.inkscape.output.svgz.inkscape">
  <defs
     id="defs7231">
    <linearGradient
       id="linearGradient4158"
       inkscape:collect="always">
      <stop
         id="stop4160"
         offset="0"
         style="stop-color:#ffffff;stop-opacity:1;" />
      <stop
         id="stop4162"
         offset="1"
         style="stop-color:#ffffff;stop-opacity:0;" />
    </linearGradient>
    <linearGradient
       inkscape:collect="always"
       xlink:href="#linearGradient4158"
       id="linearGradient2649"
       gradientUnits="userSpaceOnUse"
       gradientTransform="translate(-119.86428,90.38004)"
       x1="417.97501"
       y1="238.5744"
       x2="417.97501"
       y2="300.05838" />
  </defs>
  <sodipodi:namedview
     id="base"
     pagecolor="#ffffff"
     bordercolor="#666666"
     borderopacity="1.0"
     inkscape:pageopacity="0.0"
     inkscape:pageshadow="2"
     inkscape:zoom="8"
     inkscape:cx="69.271505"
     inkscape:cy="56.009162"
     inkscape:document-units="px"
     inkscape:current-layer="layer1"
     showgrid="true"
     inkscape:window-width="1024"
     inkscape:window-height="708"
     inkscape:window-x="646"
     inkscape:window-y="0"
     showguides="true"
     inkscape:guide-bbox="true">
    <inkscape:grid
       type="xygrid"
       id="grid7245"
       visible="true"
       enabled="true" />
  </sodipodi:namedview>
  <metadata
     id="metadata7234">
    <rdf:RDF>
      <cc:Work
         rdf:about="">
        <dc:format>image/svg+xml</dc:format>
        <dc:type
           rdf:resource="http://purl.org/dc/dcmitype/StillImage" />
      </cc:Work>
    </rdf:RDF>
  </metadata>
  <g
     inkscape:label="Camada 1"
     inkscape:groupmode="layer"
     id="layer1"
     transform="translate(-214.53572,-326.50504)">
    <rect
       style="opacity:1;fill:#656565;fill-opacity:1;stroke:none;stroke-width:0.30000001;stroke-linecap:round;stroke-linejoin:round;stroke-miterlimit:4;stroke-dasharray:none;stroke-opacity:1"
       id="rect7212"
       width="199.5"
       height="100.00001"
       x="215.12947"
       y="326.72379" />
    <g
       id="close"
       transform="translate(21.167262,4.5996094e-6)">
      <rect
         y="347.50504"
         x="368.53571"
         height="16"
         width="16"
         id="rect3403"
         style="opacity:0;fill:#000000;fill-opacity:0.49803922;fill-rule:nonzero;stroke:none;stroke-width:1.20000005;stroke-linecap:round;stroke-linejoin:miter;stroke-miterlimit:4;stroke-dasharray:none;stroke-dashoffset:0;stroke-opacity:1" />
      <g
         transform="translate(40.81332,2.2097087e-2)"
         id="g3242">
        <path
           style="fill:#000000;fill-opacity:0.49803922;fill-rule:nonzero;stroke:none;stroke-width:1.39300001;stroke-linecap:round;stroke-linejoin:miter;stroke-miterlimit:4;stroke-dasharray:none;stroke-dashoffset:0;stroke-opacity:1"
           d="M 116.25,21.34375 L 115.75,21.84375 L 114.21875,23.375 L 113.71875,23.875 L 114.21875,24.375 L 118.5,28.6875 L 114.21875,33 L 113.71875,33.46875 L 114.21875,33.96875 L 115.75,35.5 L 116.25,36 L 116.71875,35.5 L 121.03125,31.21875 L 125.34375,35.5 L 125.84375,36 L 126.34375,35.5 L 127.875,33.96875 L 128.34375,33.46875 L 127.875,33 L 123.5625,28.6875 L 127.875,24.375 L 128.34375,23.875 L 127.875,23.375 L 126.34375,21.84375 L 125.84375,21.34375 L 125.34375,21.84375 L 121.03125,26.15625 L 116.71875,21.84375 L 116.25,21.34375 z M 116.21875,22.34375 L 121.03125,27.125 L 125.84375,22.34375 L 127.375,23.875 L 122.5625,28.6875 L 127.375,33.46875 L 125.84375,35 L 121.03125,30.21875 L 116.21875,35 L 114.6875,33.46875 L 119.5,28.6875 L 114.6875,23.875 L 116.21875,22.34375 z"
           id="path3165"
           transform="translate(214.53572,326.50504)" />
        <path
           inkscape:transform-center-y="55.480675"
           inkscape:transform-center-x="114.22492"
           id="path3507"
           d="M 340.36713,348.84281 L 335.56713,353.64281 L 330.76713,348.84281 L 329.22867,350.38127 L 334.02867,355.18127 L 329.22867,359.98127 L 330.76713,361.51973 L 335.56713,356.71973 L 340.36713,361.51973 L 341.90559,359.98127 L 337.10559,355.18127 L 341.90559,350.38127 L 340.36713,348.84281 z"
           style="fill:#eeeeee;fill-opacity:0.49729728;fill-rule:nonzero;stroke:none;stroke-width:0.89300001;stroke-linecap:round;stroke-linejoin:round;stroke-miterlimit:4;stroke-dasharray:2.679, 0.893;stroke-dashoffset:0;stroke-opacity:1"
           sodipodi:nodetypes="ccccccccccccc" />
      </g>
    </g>
    <g
       id="rotate"
       transform="translate(21.167262,4.5996094e-6)">
      <rect
         y="346.50504"
         x="319.53571"
         height="16"
         width="16"
         id="rect3407"
         style="opacity:0;fill:#000000;fill-opacity:0.49803922;fill-rule:nonzero;stroke:none;stroke-width:1.20000005;stroke-linecap:round;stroke-linejoin:miter;stroke-miterlimit:4;stroke-dasharray:none;stroke-dashoffset:0;stroke-opacity:1" />
      <g
         transform="translate(22.627417,0)"
         id="g3234">
        <path
           style="fill:#000000;fill-opacity:0.49803922;fill-rule:nonzero;stroke:none;stroke-width:1.59300029;stroke-linecap:round;stroke-linejoin:round;stroke-miterlimit:4;stroke-dasharray:none;stroke-dashoffset:0;stroke-opacity:1"
           d="M 95.0625,20.34375 C 94.805841,20.360519 94.57307,20.50018 94.4375,20.71875 L 93.3125,22.375 C 92.289521,21.834109 91.22306,21.46875 90.03125,21.46875 C 86.087621,21.468759 82.84375,24.71263 82.84375,28.65625 C 82.843741,32.599879 86.08764,35.8125 90.03125,35.8125 C 93.974861,35.812499 97.1875,32.59987 97.1875,28.65625 C 97.191881,28.439449 97.09083,28.21583 96.9375,28.0625 C 96.784167,27.909171 96.5918,27.83937 96.375,27.84375 L 94.78125,27.84375 C 94.569871,27.847779 94.36528,27.94135 94.21875,28.09375 C 94.072209,28.246149 93.99574,28.44487 94,28.65625 C 93.999991,30.859789 92.23479,32.625 90.03125,32.625 C 87.827711,32.624999 86.03125,30.85977 86.03125,28.65625 C 86.031241,26.452719 87.82772,24.65625 90.03125,24.65625 C 90.555271,24.656249 90.98118,24.91092 91.4375,25.09375 L 90.625,26.28125 C 90.428541,26.548389 90.41303,26.90947 90.59375,27.1875 C 90.774472,27.46553 91.11361,27.60234 91.4375,27.53125 L 96.125,26.625 C 96.556521,26.538779 96.83638,26.11899 96.75,25.6875 L 95.875,21 C 95.805361,20.609449 95.45896,20.32966 95.0625,20.34375 z M 95.09375,21.15625 L 95.96875,25.84375 L 91.28125,26.71875 L 92.6875,24.6875 C 91.9257,24.17266 90.987996,23.875 90,23.875 C 87.36551,23.875 85.25,25.990491 85.25,28.625 C 85.25,31.25948 87.365506,33.40625 90,33.40625 C 92.6345,33.40625 94.781252,31.259481 94.78125,28.625 L 96.375,28.625 C 96.375,32.13766 93.512656,34.999999 90,35 C 86.48734,35 83.656252,32.137661 83.65625,28.625 C 83.65625,25.11233 86.487336,22.28125 90,22.28125 C 91.32917,22.28125 92.461931,22.630919 93.5625,23.375 L 95.09375,21.15625 z"
           transform="translate(214.53572,326.50504)"
           id="path3174" />
        <path
           id="path3511"
           d="M 309.61881,347.65154 L 308.11245,349.86883 C 307.01188,349.12475 305.87704,348.78007 304.54787,348.78007 C 301.03521,348.78007 298.18435,351.63093 298.18435,355.1436 C 298.18435,358.65626 301.03521,361.50711 304.54787,361.50711 C 308.06053,361.50711 310.9114,358.65626 310.9114,355.1436 L 309.32052,355.1436 C 309.32052,357.77808 307.18237,359.91623 304.54787,359.91623 C 301.91338,359.91623 299.77523,357.77808 299.77523,355.1436 C 299.77523,352.50909 301.91338,350.37095 304.54787,350.37095 C 305.53587,350.37095 306.45577,350.67144 307.21757,351.18628 L 305.82556,353.23454 L 310.51368,352.33967 L 309.61881,347.65154 z"
           style="fill:#eeeeee;fill-opacity:0.49729728;fill-rule:nonzero;stroke:none;stroke-width:0.89300001;stroke-linecap:round;stroke-linejoin:round;stroke-miterlimit:4;stroke-dasharray:2.679, 0.893;stroke-dashoffset:0;stroke-opacity:1" />
      </g>
    </g>
    <g
       id="configure"
       transform="translate(21.167262,4.5996094e-6)">
      <rect
         style="opacity:0;fill:#000000;fill-opacity:0.49803922;fill-rule:nonzero;stroke:none;stroke-width:1.20000005;stroke-linecap:round;stroke-linejoin:miter;stroke-miterlimit:4;stroke-dasharray:none;stroke-dashoffset:0;stroke-opacity:1"
         id="rect3405"
         width="16"
         height="16"
         x="343.53571"
         y="346.50504" />
      <g
         transform="translate(30.140427,-0.4375)"
         id="g3238">
        <path
           style="fill:#000000;fill-opacity:0.49803922;fill-rule:nonzero;stroke:none;stroke-width:1.69299996;stroke-linecap:round;stroke-linejoin:round;stroke-miterlimit:4;stroke-dasharray:none;stroke-dashoffset:0;stroke-opacity:1"
           d="M 108.40625,21.5 C 108.31209,21.503516 108.2312,21.533427 108.125,21.5625 C 107.43485,21.751429 106.78637,22.11988 106.25,22.65625 C 105.14624,23.760009 104.89927,25.29818 105.21875,26.71875 L 99.6875,32.25 C 98.947611,32.989839 98.94767,34.19765 99.6875,34.9375 L 100.46875,35.71875 C 101.2086,36.458619 102.41641,36.45857 103.15625,35.71875 L 108.84375,30.03125 C 110.13983,30.181859 111.48266,29.86109 112.46875,28.875 C 112.97202,28.371719 113.45999,27.73528 113.625,26.9375 C 113.70271,26.561619 113.59335,26.32562 113.5,26.09375 C 113.40665,25.861879 113.29283,25.66538 113.09375,25.46875 C 112.94152,25.318379 112.71532,25.13845 112.375,25.09375 C 112.03468,25.049049 111.65472,25.22027 111.4375,25.4375 L 110.125,26.78125 L 110.09375,26.78125 C 109.87923,26.673919 109.53573,26.46295 109.25,26.1875 C 108.96427,25.912049 108.72291,25.5688 108.625,25.375 L 110,24 C 110.20437,23.795619 110.31186,23.49584 110.3125,23.28125 C 110.31314,23.066659 110.24443,22.91318 110.1875,22.78125 C 110.07364,22.517389 109.92628,22.33506 109.75,22.15625 C 109.57372,21.977439 109.37468,21.81273 109.125,21.6875 C 108.93774,21.593577 108.68872,21.489452 108.40625,21.5 z M 108.34375,22.375 C 108.81197,22.24682 109.65948,23.15302 109.40625,23.40625 L 107.84375,24.96875 C 107.12447,25.68802 109.87743,28.21634 110.46875,27.625 L 112.03125,26.03125 C 112.19141,25.87108 112.35923,25.92345 112.5,26.0625 C 112.68101,26.24128 112.82376,26.57566 112.78125,26.78125 C 112.66544,27.34117 112.30959,27.84666 111.875,28.28125 C 110.9522,29.20405 109.64696,29.52333 108.46875,29.21875 L 102.5625,35.125 C 102.15112,35.53637 101.47388,35.53639 101.0625,35.125 L 100.28125,34.34375 C 99.86987,33.93236 99.869861,33.25512 100.28125,32.84375 L 106.0625,27.0625 C 105.56341,25.78709 105.81426,24.2795 106.84375,23.25 C 107.27757,22.81618 107.79019,22.52654 108.34375,22.375 z M 106.84375,28.0625 C 106.6984,28.08004 106.53107,28.15643 106.40625,28.28125 L 101.65625,33.0625 C 101.40662,33.31213 101.36662,33.64788 101.5625,33.84375 C 101.75837,34.03962 102.12538,33.99963 102.375,33.75 L 107.125,29 C 107.37463,28.75037 107.41461,28.38337 107.21875,28.1875 C 107.12082,28.08957 106.9891,28.04496 106.84375,28.0625 z"
           transform="translate(214.53572,326.50504)"
           id="path2386" />
        <path
           id="path3509"
           d="M 322.88015,348.8681 C 322.32659,349.01964 321.81397,349.30928 321.38015,349.7431 C 320.35066,350.7726 320.09981,352.28019 320.5989,353.5556 L 314.81765,359.33685 C 314.40626,359.74822 314.40627,360.42546 314.81765,360.83685 L 315.5989,361.6181 C 316.01028,362.02949 316.68752,362.02947 317.0989,361.6181 L 323.00515,355.71185 C 324.18336,356.01643 325.4886,355.69715 326.4114,354.77435 C 326.84599,354.33976 327.20184,353.83427 327.31765,353.27435 C 327.36016,353.06876 327.21741,352.73438 327.0364,352.5556 C 326.89563,352.41655 326.72781,352.36418 326.56765,352.52435 L 325.00515,354.1181 C 324.41383,354.70944 321.66087,352.18112 322.38015,351.46185 L 323.94265,349.89935 C 324.19588,349.64612 323.34837,348.73992 322.88015,348.8681 z M 321.38015,354.5556 C 321.5255,354.53806 321.65722,354.58267 321.75515,354.6806 C 321.95101,354.87647 321.91103,355.24347 321.6614,355.4931 L 316.9114,360.2431 C 316.66178,360.49273 316.29477,360.53272 316.0989,360.33685 C 315.90302,360.14098 315.94302,359.80523 316.19265,359.5556 L 320.94265,354.77435 C 321.06747,354.64953 321.2348,354.57314 321.38015,354.5556 z"
           style="fill:#eeeeee;fill-opacity:0.49729728;fill-rule:nonzero;stroke:none;stroke-width:0.89300001;stroke-linecap:round;stroke-linejoin:round;stroke-miterlimit:4;stroke-dasharray:2.679, 0.893;stroke-dashoffset:0;stroke-opacity:1" />
      </g>
    </g>
    <g
       id="move"
       transform="translate(21.167262,4.5996094e-6)">
      <rect
         style="opacity:0;fill:#000000;fill-opacity:0.49803922;fill-rule:nonzero;stroke:none;stroke-width:1.20000005;stroke-linecap:round;stroke-linejoin:miter;stroke-miterlimit:4;stroke-dasharray:none;stroke-dashoffset:0;stroke-opacity:1"
         id="rect3409"
         width="16"
         height="16"
         x="296.53571"
         y="347.50504" />
      <g
         transform="translate(15.003922,0)"
         id="g3226">
        <path
           style="fill:#000000;fill-opacity:0.49803922;fill-rule:evenodd;stroke:none;stroke-width:1px;stroke-linecap:butt;stroke-linejoin:miter;stroke-opacity:1"
           d="M 74.5,21.25 L 74.125,21.6875 L 72.34375,23.6875 L 71.59375,24.5 L 72.71875,24.5 L 73.53125,24.5 L 73.53125,27 L 73.53125,27.5 L 74.03125,27.5 L 75.03125,27.5 L 75.53125,27.5 L 75.53125,27 L 75.53125,24.5 L 76.3125,24.5 L 77.4375,24.5 L 76.6875,23.65625 L 74.875,21.65625 L 74.5,21.25 z M 75.53125,27.5 L 75.53125,28 L 75.53125,29 L 75.53125,29.5 L 76.03125,29.5 L 78.53125,29.5 L 78.53125,30.3125 L 78.53125,31.4375 L 79.34375,30.6875 L 81.34375,28.875 L 81.78125,28.5 L 81.34375,28.125 L 79.34375,26.34375 L 78.53125,25.59375 L 78.53125,26.71875 L 78.53125,27.5 L 76.03125,27.5 L 75.53125,27.5 z M 75.53125,29.5 L 75.03125,29.5 L 74.03125,29.5 L 73.53125,29.5 L 73.53125,30 L 73.53125,32.5 L 72.71875,32.5 L 71.59375,32.5 L 72.34375,33.34375 L 74.125,35.34375 L 74.5,35.75 L 74.875,35.34375 L 76.6875,33.34375 L 77.4375,32.5 L 76.3125,32.5 L 75.53125,32.5 L 75.53125,30 L 75.53125,29.5 z M 73.53125,29.5 L 73.53125,29 L 73.53125,28 L 73.53125,27.5 L 73.03125,27.5 L 70.53125,27.5 L 70.53125,26.71875 L 70.53125,25.59375 L 69.6875,26.34375 L 67.6875,28.125 L 67.28125,28.5 L 67.6875,28.875 L 69.6875,30.6875 L 70.53125,31.4375 L 70.53125,30.3125 L 70.53125,29.5 L 73.03125,29.5 L 73.53125,29.5 z M 74.5,22 L 76.3125,24 L 75,24 L 75,27 L 74,27 L 74,24 L 72.71875,24 L 74.5,22 z M 70,26.6875 L 70,28 L 73,28 L 73,29 L 70,29 L 70,30.3125 L 68,28.5 L 70,26.6875 z M 79,26.6875 L 81,28.5 L 79,30.3125 L 79,29 L 76,29 L 76,28 L 79,28 L 79,26.6875 z M 74,30 L 75,30 L 75,33 L 76.3125,33 L 74.5,35 L 72.71875,33 L 74,33 L 74,30 z"
           transform="translate(214.53572,326.50504)"
           id="path3197" />
        <path
           style="fill:#eeeeee;fill-opacity:0.49729728;fill-rule:evenodd;stroke:none;stroke-width:1px;stroke-linecap:butt;stroke-linejoin:miter;stroke-opacity:1"
           d="M 289.03402,348.50668 L 287.2473,350.50668 L 288.5473,350.50668 L 288.5473,353.50668 L 289.5473,353.50668 L 289.5473,350.50668 L 290.8473,350.50668 L 289.03402,348.50668 z M 284.5473,353.20668 L 282.54914,355.00586 L 284.5473,356.80668 L 284.5473,355.50668 L 287.5473,355.50668 L 287.5473,354.50668 L 284.5473,354.50668 L 284.5473,353.20668 z M 293.5473,353.20668 L 293.5473,354.50668 L 290.5473,354.50668 L 290.5473,355.50668 L 293.5473,355.50668 L 293.5473,356.80668 L 295.55085,355.00586 L 293.5473,353.20668 z M 288.5473,356.50668 L 288.5473,359.50668 L 287.2473,359.50668 L 289.03402,361.50504 L 290.8473,359.50668 L 289.5473,359.50668 L 289.5473,356.50668 L 288.5473,356.50668 z"
           id="path3513"
           sodipodi:nodetypes="cccccccccccccccccccccccccccccccc" />
      </g>
    </g>
    <g
       id="maximize"
       transform="translate(20.999999,22.000005)">
      <rect
         style="opacity:0;fill:#000000;fill-opacity:0.49803922;fill-rule:nonzero;stroke:none;stroke-width:1.20000005;stroke-linecap:round;stroke-linejoin:miter;stroke-miterlimit:4;stroke-dasharray:none;stroke-dashoffset:0;stroke-opacity:1"
         id="rect3401"
         width="16"
         height="16"
         x="215.53572"
         y="346.50504" />
      <g
         transform="translate(-49.32932,0)"
         id="g3230">
        <path
           style="opacity:1;fill:#000000;fill-opacity:0.50196078;stroke:none;stroke-width:1.20000005;stroke-linecap:round;stroke-linejoin:miter;stroke-miterlimit:4;stroke-dasharray:none;stroke-opacity:1"
           d="M 51.96875,22.375 C 51.110721,22.375019 50.40625,23.07946 50.40625,23.9375 L 50.40625,33 C 50.406271,33.858039 51.11071,34.59375 51.96875,34.59375 L 64.03125,34.59375 C 64.889311,34.593769 65.59375,33.85804 65.59375,33 L 65.59375,23.9375 C 65.593771,23.079449 64.88929,22.375 64.03125,22.375 L 51.96875,22.375 z M 51.96875,22.96875 L 64.03125,22.96875 C 64.56989,22.96875 65,23.39886 65,23.9375 L 65,33 C 65,33.53864 64.56989,33.96875 64.03125,33.96875 L 51.96875,33.96875 C 51.43011,33.96875 51,33.53864 51,33 L 51,23.9375 C 51,23.39886 51.43011,22.96875 51.96875,22.96875 z M 52,23.96875 L 52,32.96875 L 64,32.96875 L 64,23.96875 L 52,23.96875 z M 57.0625,24.59375 L 58.9375,24.59375 L 59.75,25.40625 L 60.40625,26.0625 L 59.40625,27.03125 L 58.96875,27.4375 L 59.40625,27.875 L 60.03125,28.5 L 59.40625,29.09375 L 58.96875,29.5 L 59.40625,29.9375 L 60.40625,30.9375 L 59.75,31.5625 L 58.9375,32.375 L 57.0625,32.375 L 56.28125,31.5625 L 55.65625,30.9375 L 56.625,29.9375 L 57.0625,29.5 L 56.59375,29.09375 L 56,28.5 L 56.625,27.875 L 57.03125,27.4375 L 56.625,27.03125 L 55.65625,26.0625 L 56.28125,25.40625 L 57.0625,24.59375 z M 53,24.96875 L 55.84375,24.96875 L 54.78125,26.03125 L 56.1875,27.4375 L 55.46875,28.15625 L 54.0625,26.75 L 53,27.8125 L 53,24.96875 z M 60.15625,24.96875 L 63,24.96875 L 63,27.8125 L 61.9375,26.75 L 60.53125,28.15625 L 59.8125,27.4375 L 61.21875,26.03125 L 60.15625,24.96875 z M 54.09375,27.625 L 54.96875,28.5 L 54.0625,29.40625 L 53.4375,28.78125 L 53.15625,28.53125 L 53.4375,28.25 L 54.09375,27.625 z M 61.96875,27.625 L 62.59375,28.25 L 62.84375,28.53125 L 62.59375,28.78125 L 61.96875,29.40625 L 61.0625,28.5 L 61.96875,27.625 z M 55.46875,28.8125 L 56.1875,29.5 L 54.78125,30.90625 L 55.84375,31.96875 L 53,31.96875 L 53,29.1875 L 54.0625,30.21875 L 55.46875,28.8125 z M 60.53125,28.8125 L 61.9375,30.21875 L 63,29.1875 L 63,31.96875 L 60.15625,31.96875 L 61.21875,30.90625 L 59.8125,29.5 L 60.53125,28.8125 z"
           transform="translate(214.53572,326.50504)"
           id="path3188" />
        <path
           style="opacity:1;fill:#eeeeee;fill-opacity:0.49729728;stroke:none;stroke-width:0.30000001;stroke-linecap:round;stroke-linejoin:round;stroke-miterlimit:4;stroke-dasharray:none;stroke-opacity:1"
           d="M 266.50447,349.48103 C 265.96583,349.48103 265.53572,349.91114 265.53572,350.44978 L 265.53572,359.51228 C 265.53572,360.05092 265.96583,360.48103 266.50447,360.48103 L 278.56697,360.48103 C 279.10561,360.48103 279.53572,360.05092 279.53572,359.51228 L 279.53572,350.44978 C 279.53572,349.91114 279.10561,349.48103 278.56697,349.48103 L 266.50447,349.48103 z M 266.53572,350.48103 L 278.53572,350.48103 L 278.53572,359.48103 L 266.53572,359.48103 L 266.53572,350.48103 z M 267.53572,351.48103 L 267.53572,354.32478 L 268.59822,353.26228 L 270.00447,354.66853 L 270.72322,353.94978 L 269.31697,352.54353 L 270.37947,351.48103 L 267.53572,351.48103 z M 274.69197,351.48103 L 275.75447,352.54353 L 274.34822,353.94978 L 275.06697,354.66853 L 276.47322,353.26228 L 277.53572,354.32478 L 277.53572,351.48103 L 274.69197,351.48103 z M 270.00447,355.32478 L 268.59822,356.73103 L 267.53572,355.69978 L 267.53572,358.48103 L 270.37947,358.48103 L 269.31697,357.41853 L 270.72322,356.01228 L 270.00447,355.32478 z M 275.06697,355.32478 L 274.34822,356.01228 L 275.75447,357.41853 L 274.69197,358.48103 L 277.53572,358.48103 L 277.53572,355.69978 L 276.47322,356.73103 L 275.06697,355.32478 z"
           id="scale" />
      </g>
    </g>
    <g
       id="size-vertical"
       transform="translate(21.167262,4.5996094e-6)">
      <path
         id="path3282"
         transform="translate(214.53572,326.50504)"
         d="M 69.40625,21.25 L 69.03125,21.6875 L 67.25,23.6875 L 66.5,24.5 L 67.625,24.5 L 68.4375,24.5 L 68.4375,27 L 68.4375,27.5 L 68.9375,27.5 L 69.9375,27.5 L 70.4375,27.5 L 70.4375,27 L 70.4375,24.5 L 71.21875,24.5 L 72.34375,24.5 L 71.59375,23.65625 L 69.78125,21.65625 L 69.40625,21.25 z M 69.375,22 L 71.1875,24 L 69.90625,24 L 69.90625,27 L 68.90625,27 L 68.90625,24 L 67.59375,24 L 69.375,22 z"
         style="fill:#000000;fill-opacity:0.49803922;fill-rule:evenodd;stroke:none;stroke-width:1px;stroke-linecap:butt;stroke-linejoin:miter;stroke-opacity:1" />
      <path
         id="path3278"
         transform="translate(214.53572,326.50504)"
         d="M 68.4375,29.5 L 68.4375,30 L 68.4375,32.5 L 67.625,32.5 L 66.5,32.5 L 67.25,33.34375 L 69.03125,35.34375 L 69.40625,35.75 L 69.78125,35.34375 L 71.59375,33.34375 L 72.34375,32.5 L 71.21875,32.5 L 70.4375,32.5 L 70.4375,30 L 70.4375,29.5 L 69.9375,29.5 L 68.9375,29.5 L 68.4375,29.5 z M 68.90625,30 L 69.90625,30 L 69.90625,33 L 71.1875,33 L 69.375,35 L 67.59375,33 L 68.90625,33 L 68.90625,30 z"
         style="fill:#000000;fill-opacity:0.49803922;fill-rule:evenodd;stroke:none;stroke-width:1px;stroke-linecap:butt;stroke-linejoin:miter;stroke-opacity:1" />
      <path
         id="path3266"
         d="M 283.91397,348.50504 L 282.12725,350.50504 L 283.42725,350.50504 L 283.42725,353.50504 L 284.42725,353.50504 L 284.42725,350.50504 L 285.72725,350.50504 L 283.91397,348.50504 z"
         style="fill:#eeeeee;fill-opacity:0.49729728;fill-rule:evenodd;stroke:none;stroke-width:1px;stroke-linecap:butt;stroke-linejoin:miter;stroke-opacity:1" />
      <path
         id="path3256"
         d="M 283.43883,356.50668 L 283.43883,359.50668 L 282.13883,359.50668 L 283.92555,361.50504 L 285.73883,359.50668 L 284.43883,359.50668 L 284.43883,356.50668 L 283.43883,356.50668 z"
         style="fill:#eeeeee;fill-opacity:0.49729728;fill-rule:evenodd;stroke:none;stroke-width:1px;stroke-linecap:butt;stroke-linejoin:miter;stroke-opacity:1" />
      <rect
         y="347.50504"
         x="275.53571"
         height="16"
         width="16"
         id="rect3411"
         style="opacity:0;fill:#000000;fill-opacity:0.49803922;fill-rule:nonzero;stroke:none;stroke-width:1.20000005;stroke-linecap:round;stroke-linejoin:miter;stroke-miterlimit:4;stroke-dasharray:none;stroke-dashoffset:0;stroke-opacity:1" />
    </g>
    <g
       id="size-horizontal"
       transform="translate(26.470563,4.5996094e-6)">
      <path
         id="path3280"
         transform="translate(214.53572,326.50504)"
         d="M 51.53125,25.59375 L 51.53125,26.71875 L 51.53125,27.5 L 49.03125,27.5 L 48.53125,27.5 L 48.53125,28 L 48.53125,29 L 48.53125,29.5 L 49.03125,29.5 L 51.53125,29.5 L 51.53125,30.3125 L 51.53125,31.4375 L 52.34375,30.6875 L 54.34375,28.875 L 54.78125,28.5 L 54.34375,28.125 L 52.34375,26.34375 L 51.53125,25.59375 z M 52,26.6875 L 54,28.5 L 52,30.3125 L 52,29 L 49,29 L 49,28 L 52,28 L 52,26.6875 z"
         style="fill:#000000;fill-opacity:0.49803922;fill-rule:evenodd;stroke:none;stroke-width:1px;stroke-linecap:butt;stroke-linejoin:miter;stroke-opacity:1" />
      <path
         id="path3276"
         transform="translate(214.53572,326.50504)"
         d="M 43.53125,25.59375 L 42.6875,26.34375 L 40.6875,28.125 L 40.28125,28.5 L 40.6875,28.875 L 42.6875,30.6875 L 43.53125,31.4375 L 43.53125,30.3125 L 43.53125,29.5 L 46.03125,29.5 L 46.53125,29.5 L 46.53125,29 L 46.53125,28 L 46.53125,27.5 L 46.03125,27.5 L 43.53125,27.5 L 43.53125,26.71875 L 43.53125,25.59375 z M 43,26.6875 L 43,28 L 46,28 L 46,29 L 43,29 L 43,30.3125 L 41,28.5 L 43,26.6875 z"
         style="fill:#000000;fill-opacity:0.49803922;fill-rule:evenodd;stroke:none;stroke-width:1px;stroke-linecap:butt;stroke-linejoin:miter;stroke-opacity:1" />
      <path
         id="path3264"
         d="M 257.5473,353.20668 L 255.54914,355.00586 L 257.5473,356.80668 L 257.5473,355.50668 L 260.5473,355.50668 L 260.5473,354.50668 L 257.5473,354.50668 L 257.5473,353.20668 z"
         style="fill:#eeeeee;fill-opacity:0.49729728;fill-rule:evenodd;stroke:none;stroke-width:1px;stroke-linecap:butt;stroke-linejoin:miter;stroke-opacity:1" />
      <path
         id="path3262"
         d="M 266.5473,353.20668 L 266.5473,354.50668 L 263.5473,354.50668 L 263.5473,355.50668 L 266.5473,355.50668 L 266.5473,356.80668 L 268.55085,355.00586 L 266.5473,353.20668 z"
         style="fill:#eeeeee;fill-opacity:0.49729728;fill-rule:evenodd;stroke:none;stroke-width:1px;stroke-linecap:butt;stroke-linejoin:miter;stroke-opacity:1" />
      <rect
         style="opacity:0;fill:#000000;fill-opacity:0.49803922;fill-rule:nonzero;stroke:none;stroke-width:1.20000005;stroke-linecap:round;stroke-linejoin:miter;stroke-miterlimit:4;stroke-dasharray:none;stroke-dashoffset:0;stroke-opacity:1"
         id="rect3413"
         width="16"
         height="16"
         x="254.53572"
         y="346.50504" />
    </g>
    <g
       id="size-diagonal-tl2br"
       transform="translate(0,-23.9375)">
      <rect
         y="370.50504"
         x="236.53572"
         height="16"
         width="16"
         id="rect2432"
         style="opacity:0;fill:#000000;fill-opacity:0.49803922;fill-rule:nonzero;stroke:none;stroke-width:1.20000005;stroke-linecap:round;stroke-linejoin:miter;stroke-miterlimit:4;stroke-dasharray:none;stroke-dashoffset:0;stroke-opacity:1" />
      <path
         id="path2446"
         d="M 238.53572,372.95817 C 237.7043,372.95819 237.00447,373.62674 237.00447,374.45817 L 237.00447,383.52067 C 237.00446,384.3521 237.7043,385.05192 238.53572,385.05192 L 250.59822,385.05192 C 251.42964,385.05194 252.09822,384.3521 252.09822,383.52067 L 252.09822,374.45817 C 252.09821,373.62674 251.42965,372.95817 250.59822,372.95817 L 238.53572,372.95817 z M 238.50447,373.48942 L 250.56697,373.48942 C 251.10561,373.48942 251.53572,373.91952 251.53572,374.45817 L 251.53572,383.52067 C 251.53572,384.05931 251.10561,384.48942 250.56697,384.48942 L 238.50447,384.48942 C 237.96583,384.48942 237.53572,384.05931 237.53572,383.52067 L 237.53572,374.45817 C 237.53572,373.91952 237.96583,373.48942 238.50447,373.48942 z M 238.53572,374.48942 L 238.53572,383.48942 L 250.53572,383.48942 L 250.53572,374.48942 L 238.53572,374.48942 z M 243.62947,375.05192 L 250.00447,375.05192 L 250.00447,378.52067 L 249.16072,379.33317 L 248.50447,379.98942 L 247.47322,378.95817 L 247.09822,378.58317 L 246.69197,378.95817 L 245.97322,379.64567 L 245.56697,380.02067 L 245.97322,380.42692 L 246.97322,381.45817 L 246.31697,382.11442 L 245.47322,382.95817 L 239.09822,382.95817 L 239.09822,379.58317 L 239.94197,378.73942 L 240.59822,378.08317 L 241.62947,379.08317 L 242.03572,379.45817 L 242.41072,379.08317 L 243.12947,378.36442 L 243.50447,377.95817 L 243.12947,377.58317 L 242.09822,376.58317 L 242.78572,375.89567 L 243.62947,375.05192 z M 239.53572,375.48942 L 242.37947,375.48942 L 241.31697,376.55192 L 242.72322,377.95817 L 242.00447,378.67692 L 240.59822,377.27067 L 239.53572,378.33317 L 239.53572,375.48942 z M 247.06697,379.33317 L 248.47322,380.73942 L 249.53572,379.70817 L 249.53572,382.48942 L 246.69197,382.48942 L 247.75447,381.42692 L 246.34822,380.02067 L 247.06697,379.33317 z"
         style="fill:#000000;fill-opacity:0.49803922;stroke:none;stroke-width:1.10000002;stroke-linecap:round;stroke-linejoin:miter;stroke-miterlimit:4;stroke-dasharray:none;stroke-opacity:1" />
      <path
         sodipodi:nodetypes="cccccccccccccccccccccccccccccc"
         style="fill:#eeeeee;fill-opacity:0.49729728;stroke:none;stroke-width:0.30000001;stroke-linecap:round;stroke-linejoin:round;stroke-miterlimit:4;stroke-dasharray:none;stroke-opacity:1"
         d="M 238.51891,373.49666 C 237.98026,373.49666 237.55016,373.92677 237.55016,374.46542 L 237.55016,383.52792 C 237.55016,384.06656 237.98026,384.49666 238.51891,384.49666 L 250.58141,384.49666 C 251.12005,384.49666 251.55016,384.06656 251.55016,383.52792 L 251.55016,374.46542 C 251.55016,373.92677 251.12005,373.49666 250.58141,373.49666 L 238.51891,373.49666 z M 238.55016,374.49666 L 250.55016,374.49666 L 250.55016,383.49666 L 238.55016,383.49666 L 238.55016,374.49666 z M 239.55016,375.49666 L 239.55016,378.34042 L 240.61266,377.27792 L 242.01891,378.68416 L 242.73766,377.96542 L 241.3314,376.55916 L 242.3939,375.49666 L 239.55016,375.49666 z M 247.08141,379.34042 L 246.36265,380.02792 L 247.76891,381.43416 L 246.70641,382.49666 L 249.55016,382.49666 L 249.55016,379.71542 L 248.48766,380.74666 L 247.08141,379.34042 z"
         id="path2438" />
    </g>
    <g
       id="size-diagonal-tr2bl"
       transform="matrix(-1,0,0,1,510.10269,-23.9375)">
      <rect
         style="opacity:0;fill:#000000;fill-opacity:0.49803922;fill-rule:nonzero;stroke:none;stroke-width:1.20000005;stroke-linecap:round;stroke-linejoin:miter;stroke-miterlimit:4;stroke-dasharray:none;stroke-dashoffset:0;stroke-opacity:1"
         id="rect3243"
         width="16"
         height="16"
         x="236.53572"
         y="370.50504" />
      <path
         style="fill:#000000;fill-opacity:0.49803922;stroke:none;stroke-width:1.10000002;stroke-linecap:round;stroke-linejoin:miter;stroke-miterlimit:4;stroke-dasharray:none;stroke-opacity:1"
         d="M 238.53572,372.95817 C 237.7043,372.95819 237.00447,373.62674 237.00447,374.45817 L 237.00447,383.52067 C 237.00446,384.3521 237.7043,385.05192 238.53572,385.05192 L 250.59822,385.05192 C 251.42964,385.05194 252.09822,384.3521 252.09822,383.52067 L 252.09822,374.45817 C 252.09821,373.62674 251.42965,372.95817 250.59822,372.95817 L 238.53572,372.95817 z M 238.50447,373.48942 L 250.56697,373.48942 C 251.10561,373.48942 251.53572,373.91952 251.53572,374.45817 L 251.53572,383.52067 C 251.53572,384.05931 251.10561,384.48942 250.56697,384.48942 L 238.50447,384.48942 C 237.96583,384.48942 237.53572,384.05931 237.53572,383.52067 L 237.53572,374.45817 C 237.53572,373.91952 237.96583,373.48942 238.50447,373.48942 z M 238.53572,374.48942 L 238.53572,383.48942 L 250.53572,383.48942 L 250.53572,374.48942 L 238.53572,374.48942 z M 243.62947,375.05192 L 250.00447,375.05192 L 250.00447,378.52067 L 249.16072,379.33317 L 248.50447,379.98942 L 247.47322,378.95817 L 247.09822,378.58317 L 246.69197,378.95817 L 245.97322,379.64567 L 245.56697,380.02067 L 245.97322,380.42692 L 246.97322,381.45817 L 246.31697,382.11442 L 245.47322,382.95817 L 239.09822,382.95817 L 239.09822,379.58317 L 239.94197,378.73942 L 240.59822,378.08317 L 241.62947,379.08317 L 242.03572,379.45817 L 242.41072,379.08317 L 243.12947,378.36442 L 243.50447,377.95817 L 243.12947,377.58317 L 242.09822,376.58317 L 242.78572,375.89567 L 243.62947,375.05192 z M 239.53572,375.48942 L 242.37947,375.48942 L 241.31697,376.55192 L 242.72322,377.95817 L 242.00447,378.67692 L 240.59822,377.27067 L 239.53572,378.33317 L 239.53572,375.48942 z M 247.06697,379.33317 L 248.47322,380.73942 L 249.53572,379.70817 L 249.53572,382.48942 L 246.69197,382.48942 L 247.75447,381.42692 L 246.34822,380.02067 L 247.06697,379.33317 z"
         id="path3245" />
      <path
         id="path3247"
         d="M 238.51891,373.49666 C 237.98026,373.49666 237.55016,373.92677 237.55016,374.46542 L 237.55016,383.52792 C 237.55016,384.06656 237.98026,384.49666 238.51891,384.49666 L 250.58141,384.49666 C 251.12005,384.49666 251.55016,384.06656 251.55016,383.52792 L 251.55016,374.46542 C 251.55016,373.92677 251.12005,373.49666 250.58141,373.49666 L 238.51891,373.49666 z M 238.55016,374.49666 L 250.55016,374.49666 L 250.55016,383.49666 L 238.55016,383.49666 L 238.55016,374.49666 z M 239.55016,375.49666 L 239.55016,378.34042 L 240.61266,377.27792 L 242.01891,378.68416 L 242.73766,377.96542 L 241.3314,376.55916 L 242.3939,375.49666 L 239.55016,375.49666 z M 247.08141,379.34042 L 246.36265,380.02792 L 247.76891,381.43416 L 246.70641,382.49666 L 249.55016,382.49666 L 249.55016,379.71542 L 248.48766,380.74666 L 247.08141,379.34042 z"
         style="fill:#eeeeee;fill-opacity:0.49729728;stroke:none;stroke-width:0.30000001;stroke-linecap:round;stroke-linejoin:round;stroke-miterlimit:4;stroke-dasharray:none;stroke-opacity:1"
         sodipodi:nodetypes="cccccccccccccccccccccccccccccc" />
    </g>
    <g
       id="status">
      <rect
         transform="scale(-1,1)"
         y="368.50504"
         x="-274.53571"
         height="16"
         width="16"
         id="rect2428"
         style="opacity:0;fill:#000000;fill-opacity:0.49803922;fill-rule:nonzero;stroke:none;stroke-width:1.20000005;stroke-linecap:round;stroke-linejoin:miter;stroke-miterlimit:4;stroke-dasharray:none;stroke-dashoffset:0;stroke-opacity:1" />
      <path
         id="path2435"
         transform="translate(214.53572,326.50504)"
         d="M 45.96875,44.46875 C 45.137331,44.468759 44.46875,45.13732 44.46875,45.96875 L 44.46875,55.03125 C 44.468741,55.862679 45.13732,56.5625 45.96875,56.5625 L 58.03125,56.5625 C 58.862681,56.562509 59.5625,55.86267 59.5625,55.03125 L 59.5625,45.96875 C 59.562491,45.137329 58.86268,44.46875 58.03125,44.46875 L 45.96875,44.46875 z M 45.96875,45 L 58.03125,45 C 58.5699,45 58.999999,45.4301 59,45.96875 L 59,55.03125 C 59,55.56989 58.569899,56 58.03125,56 L 45.96875,56 C 45.43011,56 44.999999,55.56989 45,55.03125 L 45,45.96875 C 45,45.4301 45.430109,45 45.96875,45 z M 46,46 L 46,50 L 48.8125,50 L 50.625,48.1875 L 51.0625,47.71875 L 51.40625,48.28125 L 53.5625,52.03125 L 54.53125,50.25 L 54.6875,50 L 54.96875,50 L 58,50 L 58,46 L 46,46 z M 46.5625,46.5625 L 57.46875,46.5625 L 57.46875,49.46875 L 54.96875,49.46875 L 54.6875,49.46875 L 54.375,49.46875 L 54.21875,49.71875 L 54.0625,49.96875 L 54.0625,50 L 53.5625,50.9375 L 51.875,48 L 51.53125,47.4375 L 51.15625,46.8125 L 50.65625,47.34375 L 50.21875,47.8125 L 48.59375,49.46875 L 46.5625,49.46875 L 46.5625,46.5625 z M 50.84375,49.34375 L 49.34375,50.84375 L 49.21875,51 L 49,51 L 46,51 L 46,55 L 58,55 L 58,51 L 55.25,51 L 54,53.28125 L 53.5625,54.03125 L 53.125,53.28125 L 50.84375,49.34375 z M 50.75,50.25 L 52.65625,53.5625 L 53.09375,54.3125 L 53.1875,54.46875 L 46.5625,54.46875 L 46.5625,51.5625 L 49,51.5625 L 49.21875,51.5625 L 49.5,51.5625 L 49.65625,51.34375 L 49.75,51.25 L 49.78125,51.1875 L 50.75,50.25 z M 55.59375,51.5625 L 57.46875,51.5625 L 57.46875,54.46875 L 53.9375,54.46875 L 54.03125,54.3125 L 54.46875,53.5625 L 54.5,53.5625 L 55.59375,51.5625 z"
         style="fill:#000000;fill-opacity:0.49803922;stroke:none;stroke-width:1.10000002;stroke-linecap:round;stroke-linejoin:miter;stroke-miterlimit:4;stroke-dasharray:none;stroke-opacity:1" />
      <path
         id="path2432"
         d="M 260.50448,371.50504 C 259.96584,371.50504 259.53573,371.93514 259.53573,372.47379 L 259.53573,381.53629 C 259.53573,382.07493 259.96584,382.50504 260.50448,382.50504 L 272.56698,382.50504 C 273.10563,382.50504 273.53573,382.07493 273.53573,381.53629 L 273.53573,372.47379 C 273.53573,371.93514 273.10563,371.50504 272.56698,371.50504 L 260.50448,371.50504 z M 260.53573,372.50504 L 272.53573,372.50504 L 272.53572,376.52066 L 269.50447,376.52066 L 269.22322,376.52066 L 269.06697,376.77066 L 268.09822,378.53629 L 265.94197,374.78629 L 265.59822,374.22379 L 265.16072,374.69254 L 263.34822,376.50504 L 260.53572,376.50504 L 260.53573,372.50504 z M 265.37947,375.84879 L 267.66072,379.78629 L 268.09822,380.53629 L 268.53572,379.78629 L 269.78572,377.52066 L 272.53572,377.52066 L 272.53573,381.50504 L 260.53573,381.50504 L 260.53572,377.50504 L 263.53572,377.50504 L 263.75447,377.50504 L 263.87947,377.34879 L 265.37947,375.84879 z"
         style="fill:#eeeeee;fill-opacity:0.49729728;stroke:none;stroke-width:0.30000001;stroke-linecap:round;stroke-linejoin:round;stroke-miterlimit:4;stroke-dasharray:none;stroke-opacity:1"
         sodipodi:nodetypes="ccccccccccccccccccccccccccccccccccc" />
    </g>
    <path
       style="fill:url(#linearGradient2649);fill-opacity:1;stroke:none;stroke-width:0.2;stroke-linecap:round;stroke-linejoin:round;stroke-miterlimit:4;stroke-dasharray:none;stroke-opacity:1"
       d="M 286.16072,368.38004 C 283.32639,368.38004 281.03572,370.67071 281.03572,373.50504 L 281.03572,376.38004 L 288.91072,376.38004 C 288.68951,376.34827 288.47398,376.26107 288.31697,376.09879 L 286.31697,374.09879 C 286.02091,373.81249 285.93931,373.385 286.09822,373.00504 C 286.25711,372.62508 286.62399,372.37035 287.03572,372.38004 L 287.03572,371.38004 C 287.03349,370.86241 287.42661,370.42861 287.94197,370.38004 C 287.9732,370.37857 288.00449,370.37857 288.03572,370.38004 L 290.03572,370.38004 C 290.58798,370.38009 291.03566,370.82778 291.03572,371.38004 L 291.03572,372.38004 C 291.44745,372.37035 291.81435,372.62508 291.97322,373.00504 C 292.13211,373.385 292.05053,373.81249 291.75447,374.09879 L 289.75447,376.09879 C 289.59746,376.26107 289.38193,376.34827 289.16072,376.38004 L 297.03572,376.38004 L 297.03572,373.50504 C 297.03572,370.67071 294.74502,368.38004 291.91072,368.38004 L 286.16072,368.38004 z M 288.03572,371.38004 L 288.03572,373.38004 L 287.03572,373.38004 L 289.03572,375.38004 L 291.03572,373.38004 L 290.03572,373.38004 L 290.03572,371.38004 L 288.03572,371.38004 z M 281.03572,377.38004 L 281.03572,380.25504 C 281.03572,383.08937 283.32642,385.38004 286.16072,385.38004 L 291.91072,385.38004 C 294.74505,385.38004 297.03572,383.08937 297.03572,380.25504 L 297.03572,377.38004 L 289.16072,377.38004 C 289.38193,377.41181 289.59746,377.49901 289.75447,377.66129 L 291.75447,379.66129 C 292.05053,379.94759 292.13213,380.37508 291.97322,380.75504 C 291.81433,381.135 291.44745,381.38973 291.03572,381.38004 L 291.03572,382.38004 C 291.03795,382.89767 290.64483,383.33147 290.12947,383.38004 C 290.09824,383.38151 290.06695,383.38151 290.03572,383.38004 L 288.03572,383.38004 C 287.48346,383.37999 287.03578,382.9323 287.03572,382.38004 L 287.03572,381.38004 C 286.62399,381.38973 286.25709,381.135 286.09822,380.75504 C 285.93933,380.37508 286.02091,379.94759 286.31697,379.66129 L 288.31697,377.66129 C 288.47398,377.49901 288.68951,377.41181 288.91072,377.38004 L 281.03572,377.38004 z M 289.03572,378.38004 L 287.03572,380.38004 L 288.03572,380.38004 L 288.03572,382.38004 L 290.03572,382.38004 L 290.03572,380.38004 L 291.03572,380.38004 L 289.03572,378.38004 z"
       id="return-to-source"
       sodipodi:nodetypes="ccccccsccsccccscccccccccccccccccsscccccsccsccccscccccccccccc"
       inkscape:label="#rect4132" />
  </g>
</svg>
