<?xml version="1.0" encoding="UTF-8" standalone="no"?>
<!-- Created with Inkscape (http://www.inkscape.org/) -->

<svg
   xmlns:dc="http://purl.org/dc/elements/1.1/"
   xmlns:cc="http://creativecommons.org/ns#"
   xmlns:rdf="http://www.w3.org/1999/02/22-rdf-syntax-ns#"
   xmlns:svg="http://www.w3.org/2000/svg"
   xmlns="http://www.w3.org/2000/svg"
   xmlns:sodipodi="http://sodipodi.sourceforge.net/DTD/sodipodi-0.dtd"
   xmlns:inkscape="http://www.inkscape.org/namespaces/inkscape"
   id="svg3095"
   version="1.1"
   inkscape:version="0.48.4 r9939"
   width="256"
   height="256"
   sodipodi:docname="kaiana2.svg">
  <metadata
     id="metadata3101">
    <rdf:RDF>
      <cc:Work
         rdf:about="">
        <dc:format>image/svg+xml</dc:format>
        <dc:type
           rdf:resource="http://purl.org/dc/dcmitype/StillImage" />
        <dc:title></dc:title>
      </cc:Work>
    </rdf:RDF>
  </metadata>
  <defs
     id="defs3099" />
  <sodipodi:namedview
     pagecolor="#ffffff"
     bordercolor="#666666"
     borderopacity="1"
     objecttolerance="10"
     gridtolerance="10"
     guidetolerance="10"
     inkscape:pageopacity="0"
     inkscape:pageshadow="2"
     inkscape:window-width="1024"
     inkscape:window-height="710"
     id="namedview3097"
     showgrid="false"
     inkscape:zoom="1.9033873"
     inkscape:cx="200.05135"
     inkscape:cy="140.19984"
     inkscape:window-x="0"
     inkscape:window-y="-3"
     inkscape:window-maximized="1"
     inkscape:current-layer="svg3095" />
  <path
     style="fill:#000000;stroke:none"
     d="m 25.549364,4.8710249 c -11.539786,0 -20.8209517,9.3769141 -20.8209517,21.0357481 l 0,203.274337 c 0,11.65884 9.2811657,21.03575 20.8209517,21.03575 l 204.764526,0 c 11.5398,0 20.82096,-9.37691 20.82096,-21.03575 l 0,-203.274337 c 0,-11.658834 -9.28116,-21.0357481 -20.82096,-21.0357481 l -204.764526,0 z M 22.920303,15.526288 c 3.768483,-0.153552 12.268505,0.778637 33.150338,1.282295 19.932622,0.480765 36.661364,1.344755 37.169476,1.923443 0.508137,0.578688 -0.792604,12.381764 -2.901032,26.225991 -5.326882,34.977086 -7.036504,56.800963 -6.980608,89.608023 0.05333,31.356 2.700415,60.44477 7.615209,84.0514 1.789268,8.5942 2.904863,16.66016 2.477965,17.9216 -0.609317,1.80051 -8.398848,2.28982 -36.202465,2.28982 -19.716617,0 -35.80849,-0.69846 -36.293124,-1.58761 -0.478807,-0.87849 0.127067,-6.57772 1.359859,-12.6703 C 32.392703,174.76806 34.736322,113.40024 28.420177,64.009262 24.775618,35.50954 20.695463,17.953371 18.115468,19.709013 c -1.423419,0.968609 0.498041,-1.210546 1.873584,-3.144677 0.469524,-0.660231 1.218303,-0.968252 2.931251,-1.038048 z M 191.60324,27.555439 c 3.72779,-0.02325 7.75924,0.01367 11.96676,0.09159 l 28.52683,0.519024 0.45328,5.403959 c 0.57365,6.665841 -1.01575,8.071115 -13.2964,11.815435 -11.32964,3.454358 -28.07367,12.682217 -40.79576,22.470698 -12.08745,9.300155 -36.5651,34.474555 -36.5651,37.613995 0,3.01322 20.11309,32.80596 38.68044,57.30639 18.91776,24.96283 42.33563,49.80767 52.7323,55.96303 8.53847,5.05524 8.80733,5.44824 8.43112,11.78491 -0.36214,6.09985 -0.74175,6.56175 -5.28833,6.56413 -2.68653,9.1e-4 -5.79089,0.24587 -6.92017,0.54955 -1.12932,0.30368 -12.12159,0.11657 -24.41703,-0.42743 -20.36518,-0.90114 -23.14555,-1.43504 -31.09544,-5.86192 -16.18179,-9.01083 -38.99462,-36.56563 -63.24855,-76.41869 -10.22823,-16.80661 -15.109545,-26.37178 -15.109545,-29.52332 0,-2.26484 24.760185,-40.018936 41.007295,-62.496641 15.26458,-21.118356 25.27728,-31.462508 32.81794,-33.950294 2.46019,-0.81165 10.93703,-1.334647 22.12036,-1.404418 z"
     id="rect3804"
     inkscape:connector-curvature="0" />
</svg>
