<?xml version="1.0" encoding="UTF-8" standalone="no"?>
<!-- Created with Inkscape (http://www.inkscape.org/) -->

<svg
   xmlns:dc="http://purl.org/dc/elements/1.1/"
   xmlns:cc="http://creativecommons.org/ns#"
   xmlns:rdf="http://www.w3.org/1999/02/22-rdf-syntax-ns#"
   xmlns:svg="http://www.w3.org/2000/svg"
   xmlns="http://www.w3.org/2000/svg"
   xmlns:sodipodi="http://sodipodi.sourceforge.net/DTD/sodipodi-0.dtd"
   xmlns:inkscape="http://www.inkscape.org/namespaces/inkscape"
   id="svg3095"
   version="1.1"
   inkscape:version="0.48.4 r9939"
   width="256"
   height="256"
   sodipodi:docname="kaiana-kmenu2.png">
  <metadata
     id="metadata3101">
    <rdf:RDF>
      <cc:Work
         rdf:about="">
        <dc:format>image/svg+xml</dc:format>
        <dc:type
           rdf:resource="http://purl.org/dc/dcmitype/StillImage" />
        <dc:title></dc:title>
      </cc:Work>
    </rdf:RDF>
  </metadata>
  <defs
     id="defs3099" />
  <sodipodi:namedview
     pagecolor="#ffffff"
     bordercolor="#666666"
     borderopacity="1"
     objecttolerance="10"
     gridtolerance="10"
     guidetolerance="10"
     inkscape:pageopacity="0"
     inkscape:pageshadow="2"
     inkscape:window-width="1024"
     inkscape:window-height="710"
     id="namedview3097"
     showgrid="false"
     inkscape:zoom="1.9033873"
     inkscape:cx="200.05135"
     inkscape:cy="84.125678"
     inkscape:window-x="0"
     inkscape:window-y="-3"
     inkscape:window-maximized="1"
     inkscape:current-layer="svg3095" />
  <path
     style="fill:#008000"
     d="m 16.78047,239.55828 c -0.495141,-0.89919 0.142693,-6.73716 1.417542,-12.97325 C 28.61856,175.60902 31.024109,112.8063 24.49249,62.251913 20.723598,33.080875 16.498861,15.1144 13.83085,16.911396 c -1.471979,0.991425 0.536542,-1.257574 1.95901,-3.237263 1.553737,-2.162505 5.898023,-0.486205 37.307782,0.263645 20.612616,0.492089 37.907404,1.379331 38.432851,1.97165 0.525471,0.592319 -0.828526,12.670852 -3.008882,26.841183 -5.508607,35.800978 -7.263239,58.134889 -7.205437,91.714719 0.05514,32.0946 2.775065,61.87603 7.857526,86.03872 1.850308,8.79664 3.003019,17.05031 2.561558,18.34147 -0.630104,1.84292 -8.676432,2.3476 -37.42856,2.3476 -20.389242,0 -37.024974,-0.72475 -37.526141,-1.63484 z m 190.43922,-0.0367 c -21.05993,-0.92237 -23.92142,-1.45531 -32.14252,-5.98647 -16.73382,-9.22308 -40.32631,-37.4419 -65.40766,-78.23371 -10.577164,-17.20249 -15.648377,-26.9968 -15.648377,-30.22258 0,-2.31819 25.617377,-40.932207 42.418757,-63.939379 15.78531,-21.615803 26.14341,-32.228214 33.94131,-34.7746 3.39216,-1.107692 17.83987,-1.655578 35.24413,-1.336524 l 29.4954,0.540706 0.48001,5.52065 c 0.59322,6.822856 -1.05229,8.271138 -13.75188,12.103656 -11.71615,3.535726 -29.03869,12.97609 -42.1948,22.995141 -12.49981,9.519222 -37.80256,35.2933 -37.80256,38.50669 0,3.0842 20.79286,33.58105 39.99362,58.6586 19.56314,25.55083 43.7634,50.97789 54.51475,57.27824 8.82976,5.17431 9.11831,5.57292 8.72927,12.05885 -0.3745,6.24354 -0.75186,6.70787 -5.45355,6.7103 -2.77818,9.3e-4 -6.00674,0.25694 -7.17456,0.56778 -1.16784,0.31083 -12.52645,0.10946 -25.24134,-0.44735 z"
     id="path3245"
     inkscape:connector-curvature="0"
     sodipodi:nodetypes="cssscscsssssccssssssscsssssssccs" />
</svg>
