<?xml version="1.0" encoding="UTF-8" standalone="no"?>
<!-- Created with Inkscape (http://www.inkscape.org/) -->

<svg
   xmlns:dc="http://purl.org/dc/elements/1.1/"
   xmlns:cc="http://creativecommons.org/ns#"
   xmlns:rdf="http://www.w3.org/1999/02/22-rdf-syntax-ns#"
   xmlns:svg="http://www.w3.org/2000/svg"
   xmlns="http://www.w3.org/2000/svg"
   xmlns:sodipodi="http://sodipodi.sourceforge.net/DTD/sodipodi-0.dtd"
   xmlns:inkscape="http://www.inkscape.org/namespaces/inkscape"
   width="24"
   height="24"
   id="svg13094"
   version="1.1"
   inkscape:version="0.48.3.1 r9886"
   sodipodi:docname="object-visible.svg">
  <sodipodi:namedview
     id="base"
     pagecolor="#ffffff"
     bordercolor="#666666"
     borderopacity="1.0"
     inkscape:pageopacity="0.0"
     inkscape:pageshadow="2"
     inkscape:zoom="32"
     inkscape:cx="11.251761"
     inkscape:cy="11.573009"
     inkscape:document-units="px"
     inkscape:current-layer="layer1"
     showgrid="true"
     inkscape:snap-bbox="true"
     inkscape:bbox-paths="true"
     inkscape:bbox-nodes="true"
     inkscape:snap-bbox-edge-midpoints="true"
     inkscape:snap-bbox-midpoints="true"
     inkscape:object-paths="true"
     inkscape:snap-intersection-paths="true"
     inkscape:object-nodes="true"
     inkscape:snap-smooth-nodes="true"
     inkscape:snap-midpoints="true"
     inkscape:snap-object-midpoints="true"
     inkscape:snap-center="true"
     showguides="false"
     inkscape:guide-bbox="true"
     inkscape:window-width="1920"
     inkscape:window-height="1027"
     inkscape:window-x="-10"
     inkscape:window-y="31"
     inkscape:window-maximized="1"
     inkscape:snap-global="true"
     fit-margin-top="0"
     fit-margin-left="0"
     fit-margin-right="0"
     fit-margin-bottom="0"
     showborder="true"
     inkscape:showpageshadow="false">
    <sodipodi:guide
       orientation="0,1"
       position="-20.000165,933.61275"
       id="guide4700" />
    <sodipodi:guide
       orientation="0,1"
       position="581.7187,331.89377"
       id="guide4702" />
    <sodipodi:guide
       orientation="1,0"
       position="581.71882,492.70384"
       id="guide4706" />
    <sodipodi:guide
       orientation="1,0"
       position="59.999836,933.61275"
       id="guide4708" />
    <sodipodi:guide
       orientation="0,1"
       position="-20.000165,853.61285"
       id="guide4710" />
    <sodipodi:guide
       orientation="0,1"
       position="541.7187,411.89369"
       id="guide4712" />
    <sodipodi:guide
       orientation="1,0"
       position="501.7187,411.89369"
       id="guide4714" />
    <inkscape:grid
       type="xygrid"
       id="grid3216"
       empspacing="5"
       visible="true"
       enabled="true"
       snapvisiblegridlinesonly="true"
       originx="-20.000111px"
       originy="-216.00016px" />
    <sodipodi:guide
       orientation="-0.70710664,0.70710692"
       position="8.9998902,-243.00016"
       id="guide3847" />
    <sodipodi:guide
       orientation="0.70710594,0.70710762"
       position="9.9998902,-242.00016"
       id="guide3849" />
    <sodipodi:guide
       orientation="-0.70710681,0.70710676"
       position="11.99989,-209.00016"
       id="guide3851" />
  </sodipodi:namedview>
  <defs
     id="defs13096" />
  <metadata
     id="metadata13099">
    <rdf:RDF>
      <cc:Work
         rdf:about="">
        <dc:format>image/svg+xml</dc:format>
        <dc:type
           rdf:resource="http://purl.org/dc/dcmitype/StillImage" />
        <dc:title />
      </cc:Work>
    </rdf:RDF>
  </metadata>
  <g
     transform="translate(9384.3076,-4838.1987)"
     id="layer1"
     inkscape:groupmode="layer"
     inkscape:label="Camada 1">
    <path
       style="font-size:medium;font-style:normal;font-variant:normal;font-weight:normal;font-stretch:normal;text-indent:0;text-align:start;text-decoration:none;line-height:normal;letter-spacing:normal;word-spacing:normal;text-transform:none;direction:ltr;block-progression:tb;writing-mode:lr-tb;text-anchor:start;baseline-shift:baseline;color:#000000;fill:#d1d4d6;fill-opacity:0.74329164;fill-rule:nonzero;stroke:none;stroke-width:2;marker:none;visibility:visible;display:inline;overflow:visible;enable-background:accumulate;font-family:Sans;-inkscape-font-specification:Sans"
       d="M 12 3.8125 C 5.0667 3.8125 0.96875 11.40625 0.96875 11.40625 L 0.28125 12.59375 L 1.34375 13.03125 C 1.56205 13.33015 2.5259 14.7075 4.3125 16.375 C 6.2847 18.2158 8.94 20.1875 12 20.1875 C 15.06 20.1875 17.7153 18.2158 19.6875 16.375 C 21.4741 14.7075 22.43805 13.33015 22.65625 13.03125 L 23.71875 12.59375 L 23.03125 11.40625 C 23.03125 11.40625 18.9333 3.8125 12 3.8125 z M 12 5 C 18 5 22 12 22 12 C 22 12 17 19 12 19 C 7 19 2 12 2 12 C 2 12 6 5 12 5 z M 2 12 C 2 12 7 17 12 17 C 17 17 22 12 22 12 L 20 12 C 20 12 18.793301 10.425314 16.65625 9.25 C 16.863364 9.7988375 17 10.378685 17 11 C 17 13.7614 14.7614 16 12 16 C 9.2386 16 7 13.7614 7 11 C 7 10.378685 7.1366358 9.7988375 7.34375 9.25 C 5.2066987 10.425314 4 12 4 12 L 2 12 z M 12 10 C 11.4477 10 11 10.4477 11 11 C 11 11.5523 11.4477 12 12 12 C 12.5523 12 13 11.5523 13 11 C 13 10.4477 12.5523 10 12 10 z "
       transform="translate(-9384.3076,4838.1987)"
       id="path3038" />
    <path
       id="path3001"
       d="m -9372.3076,4843.1987 c -6,0 -10,7 -10,7 l 2,0 c 0,0 1.2067,-1.5747 3.3437,-2.75 -0.2071,0.5488 -0.3437,1.1287 -0.3437,1.75 0,2.7614 2.2386,5 5,5 2.7614,0 5,-2.2386 5,-5 0,-0.6213 -0.1366,-1.2012 -0.3438,-1.75 2.1371,1.1753 3.3438,2.75 3.3438,2.75 l 2,0 c 0,0 -4,-7 -10,-7 z m 10,7 c 0,0 -5,5 -10,5 -5,0 -10,-5 -10,-5 0,0 5,7 10,7 5,0 10,-7 10,-7 z m -10,-2 c 0.5523,0 1,0.4477 1,1 0,0.5523 -0.4477,1 -1,1 -0.5523,0 -1,-0.4477 -1,-1 0,-0.5523 0.4477,-1 1,-1 z"
       style="color:#000000;fill:#434a55;fill-opacity:0.6745098;fill-rule:nonzero;stroke:none;stroke-width:2;marker:none;visibility:visible;display:inline;overflow:visible;enable-background:accumulate"
       inkscape:connector-curvature="0" />
  </g>
</svg>
